<svg width="100" height="100" viewBox="0 0 100 100" fill="none" xmlns="http://www.w3.org/2000/svg">
<path d="M73.1761 65.3588C73.1761 64.0375 73.1649 62.7163 73.1761 61.395C73.1761 60.9263 73.1649 60.4588 73.1761 59.99C73.1761 59.8513 73.1836 59.7125 73.1936 59.5737C73.2036 59.435 73.2411 59.3863 73.3711 59.36C73.5011 59.3338 73.6099 59.3088 73.7299 59.2938C74.5211 59.1938 75.3011 59.0175 76.1049 58.955C76.5361 58.9225 76.9624 58.83 77.3911 58.7588C77.9061 58.6788 78.4199 58.6025 78.9399 58.5525C79.4599 58.5025 80.0036 58.3987 80.5361 58.3225C80.9649 58.2612 81.3961 58.21 81.8249 58.1475C82.4499 58.0562 83.0599 57.9587 83.6786 57.8637L83.7811 57.85C84.2574 57.7962 84.3436 57.8675 84.3536 58.3325C84.3536 58.6112 84.3536 58.8887 84.3536 59.1675C84.3536 60.1062 84.3536 61.0425 84.3424 61.9837C84.3324 62.8337 84.3511 63.6838 84.3424 64.5338C84.3336 65.3838 84.3811 66.2338 84.3274 67.085C84.3024 67.4813 84.3411 67.8838 84.3461 68.2825C84.3461 68.63 84.3461 68.9775 84.3461 69.3238C84.3463 69.4108 84.3396 69.4977 84.3261 69.5837C84.3191 69.6444 84.2931 69.7012 84.2518 69.7462C84.2104 69.7911 84.156 69.8217 84.0961 69.8337C83.9261 69.87 83.7549 69.905 83.5836 69.9288C82.9586 70.015 82.3436 70.0938 81.7249 70.1788C81.3986 70.2238 81.0724 70.2775 80.7461 70.3275C80.644 70.3485 80.5403 70.3614 80.4361 70.3663C80.0894 70.3778 79.7443 70.4197 79.4049 70.4913C78.9424 70.565 78.4774 70.6163 78.0136 70.69C77.4974 70.7638 76.9824 70.8425 76.4674 70.9175L74.4561 71.2C74.3311 71.2175 74.2174 71.2438 74.0961 71.26C73.8736 71.29 73.6499 71.3213 73.4249 71.3425C73.2699 71.3563 73.1874 71.2875 73.1836 71.14C73.1774 70.81 73.1761 70.48 73.1761 70.15V65.3588Z" fill="#5827B0"/>
<path d="M38.7188 22.91C38.6863 22.4162 38.765 21.6687 38.725 20.9225C38.72 20.8705 38.72 20.8182 38.725 20.7662C38.7975 20.2662 38.6975 19.7662 38.7188 19.2575C38.74 18.7487 38.7713 18.2825 38.7475 17.7975C38.7138 17.1012 38.73 16.4075 38.73 15.7112C38.73 15.3837 38.7975 15.0575 38.7475 14.7262C38.7417 14.6733 38.7557 14.6201 38.7869 14.5769C38.8181 14.5337 38.8642 14.5036 38.9163 14.4925C39.0152 14.4595 39.1163 14.4332 39.2188 14.4137C39.4588 14.3737 39.7 14.3387 39.94 14.3075C40.94 14.175 41.94 14.02 42.94 13.8937C44.0088 13.7587 45.065 13.5662 46.14 13.445C46.7425 13.3762 47.3388 13.25 47.9425 13.1837C48.5125 13.1212 49.08 13.0375 49.6475 12.96C49.6776 12.9535 49.7089 12.9541 49.7387 12.9618C49.7686 12.9695 49.7962 12.984 49.8194 13.0043C49.8426 13.0246 49.8607 13.05 49.8724 13.0786C49.884 13.1072 49.8887 13.138 49.8863 13.1687C49.8946 13.7087 49.8992 14.2479 49.9 14.7862C49.9 15.3612 49.9 15.935 49.9 16.5087C49.8925 17.0087 49.9113 17.5087 49.8563 18.015C49.8494 18.0844 49.8494 18.1543 49.8563 18.2237C49.9388 19.2137 49.885 20.205 49.8788 21.195C49.8788 21.525 49.8713 21.855 49.8788 22.1837C49.8788 22.4275 49.8988 22.6712 49.895 22.9137C49.895 23.4137 49.8688 23.9212 49.895 24.4262C49.8988 24.5302 49.8937 24.6343 49.88 24.7375C49.8767 24.7902 49.8567 24.8404 49.823 24.8811C49.7893 24.9217 49.7437 24.9506 49.6925 24.9637C49.611 24.9902 49.5274 25.0094 49.4425 25.0212C48.4575 25.1287 47.485 25.3225 46.5025 25.44C45.7425 25.53 44.9913 25.6787 44.2313 25.7562C43.1425 25.87 42.0675 26.0837 40.9813 26.2062C40.3563 26.2762 39.7413 26.375 39.1225 26.4562C39.0546 26.4692 38.9852 26.473 38.9163 26.4675C38.8812 26.4662 38.8476 26.4532 38.8209 26.4305C38.7941 26.4079 38.7758 26.3768 38.7688 26.3425C38.7472 26.188 38.7355 26.0322 38.7338 25.8762C38.7175 24.9725 38.7188 24.0675 38.7188 22.91Z" fill="#5827B0"/>
<path d="M72.8749 40.5387C72.8649 41.5813 72.8553 42.6229 72.8462 43.6638C72.8462 43.89 72.8649 44.1163 72.8662 44.3413C72.8662 44.8813 72.8662 45.42 72.8662 45.96C72.8662 46.0463 72.8662 46.1338 72.8587 46.22C72.8374 46.4775 72.7337 46.595 72.4837 46.6375C71.8987 46.7238 71.3137 46.7987 70.7337 46.8775C70.4399 46.9175 70.1474 46.9488 69.8587 46.9913C69.1187 47.1013 68.3812 47.22 67.6412 47.325C66.9012 47.43 66.1587 47.515 65.4199 47.6263C64.8199 47.715 64.2137 47.76 63.6162 47.8763C63.2087 47.9588 62.7887 47.98 62.3749 48.03C62.2499 48.045 62.1337 48.065 62.0137 48.0813C61.8087 48.11 61.7249 48.0463 61.7187 47.8313C61.7099 47.5363 61.7062 47.24 61.7249 46.945C61.7349 46.7888 61.7362 46.635 61.7337 46.4787C61.7212 45.6437 61.7162 44.8087 61.7137 43.9787C61.7149 43.8936 61.7297 43.8092 61.7574 43.7287C61.781 43.6471 61.781 43.5604 61.7574 43.4787C61.7232 43.3624 61.7084 43.2412 61.7137 43.12C61.7749 42.5287 61.6924 41.9388 61.7049 41.3488C61.7249 40.3913 61.7299 39.435 61.7337 38.4738C61.7337 37.9875 61.7187 37.5025 61.7162 37.0175C61.7162 36.7913 61.7162 36.565 61.7337 36.34C61.7351 36.287 61.7538 36.236 61.787 36.1947C61.8202 36.1534 61.866 36.1241 61.9174 36.1113C62.0332 36.0748 62.1514 36.0468 62.2712 36.0275C62.7537 35.9612 63.2374 35.9025 63.7199 35.84C64.5949 35.715 65.4699 35.59 66.3512 35.4588C66.4874 35.44 66.6262 35.4325 66.7649 35.4225C66.8338 35.4268 66.903 35.4235 66.9712 35.4125C67.3037 35.2975 67.6562 35.2988 67.9962 35.2363C68.0459 35.2197 68.0976 35.21 68.1499 35.2075C68.5762 35.2538 68.9699 35.0825 69.3787 35.025C69.4299 35.0175 69.4799 34.9987 69.5324 34.995C70.5037 34.9187 71.4612 34.7387 72.4237 34.6L72.4749 34.5913C72.7887 34.5513 72.8787 34.6237 72.8812 34.96C72.8812 35.585 72.8812 36.21 72.8812 36.835C72.8812 37.8275 72.8812 38.8188 72.8812 39.81C72.8812 40.0538 72.8649 40.2963 72.8574 40.54L72.8749 40.5387Z" fill="#5827B0"/>
<path d="M61.685 54.415C61.685 54.12 61.685 53.8246 61.685 53.5287C61.685 52.0287 61.685 50.5329 61.685 49.0412C61.6838 48.9543 61.6888 48.8674 61.7 48.7812C61.7063 48.7378 61.724 48.6968 61.7512 48.6623C61.7784 48.6279 61.8142 48.6012 61.855 48.585C61.9664 48.5365 62.0824 48.4993 62.2012 48.4737C62.475 48.4225 62.7487 48.3775 63.025 48.34C64.1608 48.1825 65.2975 48.0271 66.435 47.8737L68.14 47.6475C68.2775 47.6287 68.415 47.605 68.5525 47.585C68.845 47.5437 69.1362 47.4875 69.4275 47.4687C69.7412 47.4487 70.0462 47.3875 70.355 47.3437C71.105 47.2275 71.8662 47.1212 72.6237 47.0137C72.676 47.0091 72.7281 47.0246 72.7692 47.0571C72.8104 47.0897 72.8375 47.1368 72.845 47.1887C72.8524 47.2577 72.8562 47.3269 72.8562 47.3962C72.8562 48.405 72.8562 49.4137 72.8562 50.4237C72.8562 51.2575 72.8362 52.0912 72.8349 52.9237C72.8349 53.6375 72.8462 54.35 72.8487 55.0637C72.8549 55.1847 72.8465 55.306 72.8237 55.425C72.7951 55.542 72.7951 55.6642 72.8237 55.7812C72.8471 55.9006 72.8567 56.0222 72.8525 56.1437C72.8525 56.9096 72.8525 57.6754 72.8525 58.4412C72.8525 58.4925 72.8525 58.545 72.8462 58.5975C72.8225 58.9075 72.7212 59.0262 72.4024 59.0775C72.1112 59.125 71.8175 59.1587 71.5275 59.2025C70.6662 59.3275 69.8075 59.4525 68.9462 59.5775C68.3437 59.6612 67.7412 59.7387 67.1375 59.8212C66.4837 59.91 65.83 60.0025 65.1762 60.0912C64.935 60.1237 64.6925 60.145 64.4525 60.1812C63.9875 60.2512 63.525 60.3312 63.0612 60.4C62.6862 60.4562 62.3037 60.5037 61.925 60.5487C61.8 60.5638 61.745 60.5 61.735 60.365C61.6737 59.3595 61.665 58.3514 61.7087 57.345C61.72 56.8587 61.6937 56.3712 61.69 55.885C61.6862 55.3987 61.69 54.9113 61.69 54.4237L61.685 54.415Z" fill="#5827B0"/>
<path d="M61.2888 75.8112C61.2888 76.3675 61.2888 76.9238 61.2888 77.48C61.2888 77.67 61.2688 77.855 61.2563 78.0512C61.2446 78.1189 61.2396 78.1876 61.2413 78.2562C61.3226 78.8287 61.2776 79.4 61.2576 79.9725C61.2451 80.3188 61.2751 80.6662 61.2763 81.0137C61.2763 82.3175 61.2763 83.62 61.2763 84.9238C61.2763 85.0113 61.2763 85.0975 61.2651 85.185C61.2463 85.435 61.2063 85.4888 60.9638 85.53C60.7213 85.5712 60.4913 85.6412 60.2413 85.5987C60.1378 85.5916 60.0338 85.6043 59.9351 85.6363C59.5601 85.7163 59.1976 85.84 58.8101 85.7988C58.7406 85.8041 58.6721 85.8184 58.6063 85.8412C58.4013 85.8762 58.1963 85.9088 57.9901 85.94C57.8651 85.9575 57.7501 85.9713 57.6288 85.9875L55.7738 86.2563C55.1888 86.3413 54.6076 86.4513 54.0238 86.5063C53.3838 86.5712 52.7563 86.7162 52.1176 86.7787C51.7201 86.8175 51.3276 86.8913 50.9326 86.9488C50.8988 86.9488 50.8638 86.9625 50.8301 86.965C50.1351 87.0287 50.0801 86.9812 50.1176 86.34C50.1251 86.2375 50.1176 86.1325 50.1176 86.0287C50.1176 85.925 50.1113 85.82 50.1076 85.7162C50.0926 85.41 50.1988 85.115 50.1263 84.795C50.0638 84.5137 50.1126 84.2075 50.1126 83.9112C50.1126 83.615 50.1126 83.2862 50.1126 82.9737C50.1126 82.6612 50.1126 82.3825 50.1126 82.0875C50.1126 81.7925 50.1126 81.4625 50.1126 81.1488C50.1126 79.8625 50.0963 78.5763 50.1126 77.29C50.1201 76.7338 50.0963 76.1787 50.1126 75.6237C50.1126 75.5187 50.1126 75.415 50.1213 75.3112C50.1363 75.1037 50.2013 75.0238 50.3926 74.9875C50.5838 74.9513 50.8026 74.905 51.0101 74.8875C51.9976 74.8037 52.9688 74.6075 53.9501 74.48C54.2763 74.4375 54.6038 74.395 54.9301 74.3487C55.5326 74.2637 56.1338 74.175 56.7351 74.09C57.6101 73.965 58.4851 73.84 59.3601 73.7237C59.7738 73.6662 60.1863 73.6087 60.5976 73.545C60.7508 73.513 60.908 73.5046 61.0638 73.52C61.1158 73.5264 61.1639 73.5506 61.2001 73.5884C61.2363 73.6262 61.2584 73.6753 61.2626 73.7275C61.2738 73.8838 61.2826 74.04 61.2838 74.1963C61.2838 74.735 61.2838 75.2738 61.2838 75.8138L61.2888 75.8112Z" fill="#5827B0"/>
<path d="M61.3976 17.26C61.3476 18.0937 61.3976 18.9437 61.3976 19.7937C61.3976 20.6438 61.3976 21.4637 61.3976 22.2937C61.3976 22.555 61.3826 22.815 61.3639 23.075C61.364 23.1461 61.3379 23.2147 61.2907 23.2677C61.2434 23.3208 61.1782 23.3545 61.1076 23.3625C60.9389 23.404 60.7677 23.4345 60.5951 23.4538C60.1601 23.4875 59.7326 23.56 59.3039 23.6287C58.8039 23.7075 58.3039 23.7725 57.8039 23.8325C56.7351 23.9637 55.6789 24.1838 54.6076 24.2938C53.8464 24.3713 53.0976 24.5238 52.3376 24.6C51.8889 24.6438 51.4451 24.725 50.9989 24.7987C50.8117 24.839 50.6191 24.8483 50.4289 24.8263C50.3859 24.8192 50.3459 24.7997 50.3139 24.7701C50.2819 24.7406 50.2593 24.7023 50.2489 24.66C50.2347 24.5749 50.2268 24.4888 50.2251 24.4025C50.2251 23.8112 50.2251 23.2212 50.2251 22.63C50.2177 22.4911 50.2364 22.352 50.2801 22.22C50.3045 22.174 50.3116 22.1208 50.3001 22.07C50.1751 21.82 50.2639 21.555 50.2351 21.2975C50.2256 21.055 50.2297 20.8121 50.2476 20.57C50.2476 20.2412 50.2339 19.9112 50.2276 19.5825C50.2214 19.4609 50.2214 19.3391 50.2276 19.2175C50.2914 18.4025 50.2364 17.5925 50.2276 16.775C50.2276 16.41 50.2389 16.045 50.2389 15.68C50.2389 15.4725 50.2289 15.2637 50.2239 15.055C50.2076 14.4812 50.2801 13.9087 50.2239 13.3362C50.2239 13.3187 50.2239 13.3012 50.2239 13.2837C50.2376 12.9375 50.3164 12.8387 50.6476 12.82C50.9765 12.7938 51.3029 12.7424 51.6239 12.6662C51.9289 12.6012 52.2414 12.57 52.5514 12.5287L54.9264 12.2125C55.5514 12.13 56.1664 12.0487 56.7864 11.9625C56.8889 11.9487 56.9914 11.9237 57.0926 11.9025C57.398 11.8344 57.708 11.7893 58.0201 11.7675C58.2964 11.75 58.5701 11.6925 58.8451 11.6562C59.6184 11.5512 60.3922 11.4479 61.1664 11.3462C61.3164 11.3262 61.3914 11.395 61.3939 11.5562C61.3939 11.8687 61.4039 12.1812 61.3939 12.495C61.3589 13.2937 61.4014 14.0912 61.4001 14.8887C61.3989 15.6862 61.3976 16.4612 61.3976 17.26Z" fill="#5827B0"/>
<path d="M73.27 15.5937C73.27 14.9687 73.27 14.3437 73.27 13.7187C73.27 12.5362 73.2838 11.355 73.2838 10.1725C73.2838 9.71624 73.3025 9.62874 73.7838 9.56874C74.3338 9.50124 74.8788 9.38624 75.4275 9.30999C76.0813 9.22124 76.7375 9.15749 77.3913 9.07124C77.9938 8.99249 78.595 8.89999 79.1975 8.81124C80.1763 8.66874 81.1525 8.50249 82.1363 8.39124C82.6363 8.33499 83.1225 8.20249 83.625 8.16999C83.7975 8.15874 83.9713 8.13499 84.1438 8.13374C84.1834 8.13098 84.2232 8.13674 84.2605 8.15063C84.2978 8.16453 84.3316 8.18623 84.3598 8.21429C84.388 8.24235 84.4098 8.27612 84.4239 8.31332C84.4379 8.35053 84.4439 8.3903 84.4413 8.42999C84.4525 8.79374 84.4538 9.15874 84.4513 9.52249C84.4513 10.67 84.4338 11.8175 84.4313 12.9637C84.4313 13.815 84.4463 14.6662 84.4488 15.5175C84.4488 15.9175 84.44 16.3162 84.435 16.7162C84.435 17.0462 84.4263 17.375 84.42 17.705C84.4138 18.035 84.395 18.33 84.4 18.6375C84.4 18.8975 84.435 19.1562 84.4488 19.4162C84.4488 19.5212 84.4488 19.625 84.4488 19.73C84.4338 20.0525 84.3425 20.105 84.0413 20.15C83.0775 20.275 82.1163 20.4212 81.1525 20.5537C80.5513 20.6375 79.9463 20.7062 79.345 20.79C78.8975 20.8512 78.4538 20.935 78.0063 20.9925C77.3538 21.0775 76.7063 21.1912 76.0525 21.2637C75.6913 21.305 75.3325 21.3712 74.9725 21.4262C74.6125 21.4812 74.2225 21.5512 73.8388 21.595C73.3688 21.6525 73.2575 21.5875 73.2775 21.1175C73.2975 20.6475 73.3013 20.1787 73.3025 19.7112C73.3038 19.2437 73.2913 18.74 73.2875 18.2537C73.2875 17.5937 73.2875 16.9337 73.2875 16.2725V15.595L73.27 15.5937Z" fill="#5827B0"/>
<path d="M49.7963 64.7712C49.7963 65.2587 49.7963 65.745 49.7963 66.2325C49.7963 66.4062 49.7788 66.5788 49.7688 66.7525C49.7581 66.8379 49.7547 66.924 49.7588 67.01C49.8213 67.4788 49.7838 67.9488 49.7888 68.4175C49.8001 69.5425 49.7888 70.6787 49.7888 71.8087C49.7888 72.0512 49.7626 72.295 49.7601 72.5375C49.7601 72.8312 49.7676 73.125 49.7726 73.4125C49.7968 73.7597 49.7934 74.1083 49.7626 74.455C49.7592 74.5077 49.7393 74.5579 49.7056 74.5986C49.6719 74.6392 49.6262 74.6682 49.5751 74.6813C49.4582 74.714 49.3391 74.7386 49.2188 74.755C48.6676 74.8275 48.1151 74.89 47.5638 74.9662C46.9788 75.0462 46.3963 75.1425 45.8138 75.2262C44.9538 75.3512 44.0926 75.4625 43.2326 75.585C42.6313 75.6712 42.0301 75.7662 41.4276 75.8525C40.6884 75.9575 39.9488 76.0596 39.2088 76.1588C39.1238 76.17 39.0351 76.1588 38.9488 76.1588C38.6826 76.1825 38.6038 76.1587 38.6713 75.8437C38.6838 75.7756 38.6838 75.7057 38.6713 75.6375C38.6018 75.1733 38.5896 74.7022 38.6351 74.235C38.6454 74.1663 38.6496 74.0969 38.6476 74.0275C38.5813 73.455 38.6476 72.8812 38.6213 72.3087C38.6051 71.8937 38.6151 71.4762 38.6213 71.0587C38.6213 70.8525 38.6701 70.645 38.6688 70.4337C38.6676 70.2225 38.6238 70.0187 38.6188 69.8087C38.6126 69.5487 38.6276 69.2875 38.6301 69.0263C38.6301 68.6275 38.6476 68.2288 38.6301 67.8313C38.6113 67.2738 38.6101 66.7187 38.6301 66.1612C38.6413 65.7975 38.6238 65.4325 38.6201 65.0675C38.6144 64.9809 38.6144 64.8941 38.6201 64.8075C38.6913 64.1925 38.6201 64.1587 39.3151 64.0937C39.7126 64.0562 40.1063 63.9862 40.5013 63.93C40.5351 63.93 40.5688 63.9125 40.6038 63.91C41.5763 63.8425 42.5226 63.585 43.4926 63.51C44.0301 63.4687 44.5526 63.3212 45.0926 63.3112C45.1774 63.3065 45.2614 63.2914 45.3426 63.2662C45.6129 63.2005 45.8879 63.1558 46.1651 63.1325C46.7513 63.06 47.3338 62.9625 47.9151 62.8825C48.4663 62.8075 49.0188 62.7413 49.5701 62.6738C49.6141 62.6709 49.6576 62.6852 49.6913 62.7136C49.7251 62.742 49.7466 62.7824 49.7513 62.8262C49.7636 62.9115 49.7703 62.9976 49.7713 63.0838C49.7713 63.6413 49.7713 64.1975 49.7713 64.7538L49.7963 64.7712Z" fill="#5827B0"/>
<path d="M61.3862 26.145C61.375 26.6875 61.4062 27.2087 61.3487 27.7287C61.3427 27.9189 61.3486 28.1093 61.3662 28.2987C61.3737 28.8562 61.3825 29.4125 61.3787 29.9687C61.3787 30.7862 61.3537 31.6037 61.3537 32.4212C61.3537 33.3775 61.3675 34.3337 61.375 35.29C61.375 35.3937 61.375 35.4987 61.36 35.6012C61.3582 35.636 61.345 35.6692 61.3224 35.6957C61.2998 35.7221 61.269 35.7404 61.235 35.7475C60.9473 35.8214 60.655 35.8757 60.36 35.91C60.0487 35.93 59.735 35.98 59.43 36.025C58.5875 36.15 57.7462 36.2812 56.9025 36.4C56.335 36.4825 55.765 36.5512 55.1975 36.6275C54.7837 36.6837 54.3712 36.745 53.9587 36.8C53.8562 36.8125 53.7512 36.8087 53.6475 36.8137C53.5965 36.807 53.5448 36.81 53.495 36.8225C53.1887 36.9812 52.8475 36.9337 52.525 36.9962C52.4062 37.02 52.2837 37.0262 52.165 37.05C51.7227 37.1401 51.2751 37.2023 50.825 37.2362C50.67 37.2487 50.5162 37.2825 50.3625 37.3037C50.305 37.3112 50.2262 37.235 50.2187 37.1787C50.212 37.145 50.2082 37.1107 50.2075 37.0762C50.2487 36.415 50.1725 35.755 50.2075 35.095C50.25 34.2262 50.1925 33.3575 50.2075 32.4887C50.1981 32.4199 50.1981 32.3501 50.2075 32.2812C50.2987 31.9712 50.2312 31.6562 50.22 31.35C50.205 30.985 50.2037 30.62 50.2037 30.2562C50.2037 29.2825 50.2275 28.3075 50.2337 27.3337C50.2141 27.0215 50.2234 26.7081 50.2612 26.3975C50.2628 26.294 50.254 26.1905 50.235 26.0887C50.235 25.8975 50.225 25.7062 50.235 25.5162C50.2401 25.4637 50.2617 25.4141 50.2967 25.3746C50.3318 25.335 50.3784 25.3076 50.43 25.2962C50.5639 25.259 50.7 25.2297 50.8375 25.2087C51.285 25.1487 51.7337 25.095 52.1825 25.0387C52.5437 24.9925 52.9062 24.9537 53.2675 24.9012C54.1262 24.7762 54.985 24.6387 55.8437 24.5125C56.8754 24.3608 57.907 24.2125 58.9387 24.0675C59.5412 23.9842 60.1437 23.9008 60.7462 23.8175C60.832 23.8028 60.9194 23.7986 61.0062 23.805C61.34 23.84 61.3812 23.8962 61.3812 24.18C61.3875 24.8437 61.3862 25.5 61.3862 26.145Z" fill="#5827B0"/>
<path d="M73.2101 52.8237C73.2101 52.4775 73.2189 52.1312 73.2101 51.785C73.1766 51.1778 73.1812 50.5691 73.2239 49.9625C73.1426 49.3038 73.2326 48.6425 73.2001 47.9825C73.1839 47.6712 73.2001 47.3575 73.2126 47.0462C73.2157 47.0109 73.2308 46.9776 73.2553 46.9519C73.2799 46.9262 73.3124 46.9097 73.3476 46.905C73.6214 46.86 73.8951 46.805 74.1714 46.78C74.4481 46.7564 74.7234 46.7188 74.9964 46.6675C75.3192 46.5952 75.6482 46.5534 75.9789 46.5425C76.0828 46.5384 76.1861 46.525 76.2876 46.5025C76.6281 46.4365 76.9719 46.3893 77.3176 46.3613C77.6239 46.3475 77.9301 46.25 78.2414 46.2112C78.7751 46.1462 79.3064 46.0537 79.8401 45.9825C80.4939 45.8962 81.1501 45.825 81.8039 45.7387C82.1464 45.6925 82.4901 45.6387 82.8289 45.5662C83.0167 45.5338 83.2062 45.5113 83.3964 45.4987C83.6326 45.4725 83.8751 45.5212 84.1051 45.4087C84.1297 45.3988 84.1564 45.395 84.1828 45.3977C84.2092 45.4003 84.2346 45.4094 84.2567 45.424C84.2789 45.4386 84.2971 45.4584 84.3099 45.4817C84.3227 45.5049 84.3296 45.531 84.3301 45.5575C84.3451 46.0437 84.3626 46.5313 84.3639 47.0175C84.3689 48.095 84.3689 49.1729 84.3639 50.2513C84.3639 51.05 84.3189 51.8513 84.3439 52.6488C84.3614 53.205 84.3589 53.7613 84.3639 54.3175C84.3639 55.1513 84.3639 55.9863 84.3551 56.8175C84.3551 56.9213 84.3551 57.0263 84.3451 57.13C84.3486 57.1649 84.3448 57.2001 84.3338 57.2334C84.3228 57.2666 84.3049 57.2972 84.2814 57.3232C84.2578 57.3491 84.229 57.3698 84.1969 57.3839C84.1649 57.398 84.1302 57.4052 84.0951 57.405C83.0464 57.555 81.9989 57.715 80.9489 57.8525C80.1239 57.9588 79.3014 58.0825 78.4789 58.2063C77.8264 58.3038 77.1714 58.3837 76.5176 58.4712C76.3276 58.4962 76.1426 58.52 75.9489 58.5475C75.503 58.6133 75.0568 58.6813 74.6101 58.7513C74.4214 58.78 74.2351 58.8138 74.0426 58.8375C73.8501 58.8613 73.6676 58.8837 73.4726 58.8975C73.3064 58.9087 73.2226 58.825 73.2026 58.6475C73.2026 58.5787 73.1951 58.5088 73.1951 58.4388V54.5262C73.1951 54.0575 73.1951 53.5887 73.1951 53.12C73.1951 53.0162 73.1951 52.9112 73.1951 52.8075L73.2101 52.8237Z" fill="#5827B0"/>
<path d="M50.2061 43.75C50.2061 41.9412 50.2124 40.1337 50.2061 38.3262C50.2061 37.7012 50.2574 37.7438 50.7449 37.65C51.0374 37.5938 51.3324 37.5925 51.6199 37.5575C52.1199 37.4987 52.6199 37.3975 53.1124 37.325C53.7999 37.2237 54.4874 37.095 55.1774 37.0412C55.4186 37.0225 55.6586 36.975 55.8974 36.9337C56.4624 36.8362 57.0361 36.7987 57.5986 36.6837C57.9374 36.6137 58.2861 36.5862 58.6299 36.5387C59.2661 36.45 59.9011 36.36 60.5374 36.2737C60.7274 36.2487 60.9124 36.23 61.1086 36.22C61.2536 36.2112 61.3211 36.28 61.3399 36.4387C61.3845 36.8714 61.3941 37.307 61.3686 37.7412C61.3461 38.2775 61.3024 38.815 61.3686 39.3512C61.3686 39.3862 61.3686 39.4212 61.3686 39.4562C61.3924 39.7637 61.2911 40.0637 61.3536 40.3812C61.4099 40.6662 61.3699 40.97 61.3661 41.2662C61.3715 41.4052 61.3622 41.5443 61.3386 41.6813C61.2861 41.9019 61.2861 42.1318 61.3386 42.3525C61.3534 42.4202 61.3589 42.4896 61.3549 42.5587C61.3211 43.6512 61.3549 44.7437 61.3549 45.835C61.3549 46.495 61.3549 47.155 61.3461 47.8138C61.3459 47.866 61.3426 47.9182 61.3361 47.97C61.3308 48.0308 61.3057 48.0883 61.2646 48.1334C61.2235 48.1786 61.1687 48.209 61.1086 48.22C60.9036 48.2613 60.6986 48.3 60.4924 48.3288C59.8899 48.4113 59.2874 48.4863 58.6849 48.5675C58.2724 48.6238 57.8599 48.6837 57.4474 48.7413L55.5986 49C55.565 49.0088 55.5307 49.0146 55.4961 49.0175C55.2376 49.0171 54.9802 49.052 54.7311 49.1213C54.3912 49.1929 54.0472 49.2438 53.7011 49.2738C53.3261 49.315 52.9449 49.3863 52.5674 49.4313C51.9811 49.5 51.4049 49.6438 50.8174 49.6525C50.748 49.6551 50.6794 49.6678 50.6136 49.69C50.2511 49.795 50.2024 49.6625 50.2036 49.3788C50.2036 48.1446 50.2036 46.9104 50.2036 45.6763V43.75H50.2061Z" fill="#5827B0"/>
<path d="M38.3039 54.1425C38.3239 54.6787 38.2726 55.215 38.3039 55.7512C38.3076 55.7861 38.3076 55.8213 38.3039 55.8562C38.2151 56.46 38.3814 57.0687 38.2726 57.6725C38.3401 58.0362 38.2401 58.4012 38.2726 58.7612C38.3051 59.1212 38.2951 59.49 38.2976 59.855C38.3034 60.585 38.3034 61.315 38.2976 62.045C38.2976 62.27 38.2801 62.4962 38.2564 62.72C38.2449 62.8579 38.2491 62.9967 38.2689 63.1337C38.2853 63.289 38.2899 63.4453 38.2826 63.6012C38.2841 63.6718 38.2593 63.7404 38.2131 63.7937C38.167 63.847 38.1026 63.8813 38.0326 63.89C37.8276 63.9287 37.6226 63.9687 37.4151 63.9925C36.4676 64.105 35.5239 64.2487 34.5814 64.4C34.0151 64.49 33.4439 64.545 32.8751 64.6212C32.2051 64.7125 31.5351 64.8112 30.8651 64.9037C29.9901 65.0287 29.1151 65.1412 28.2326 65.2625C27.9401 65.3025 27.6501 65.3537 27.3576 65.3875C27.3319 65.3929 27.3054 65.3928 27.2798 65.387C27.2542 65.3813 27.2301 65.3701 27.2092 65.3542C27.1883 65.3383 27.1711 65.3181 27.1588 65.2949C27.1464 65.2717 27.1392 65.2462 27.1376 65.22C27.1314 65.15 27.1276 65.0813 27.1276 65.0113C27.1276 64.16 27.1101 63.3075 27.1351 62.4562C27.1439 62.1312 27.0851 61.7987 27.1951 61.4787C27.2021 61.4626 27.2051 61.445 27.2039 61.4275C27.0451 60.8462 27.1589 60.2525 27.1326 59.6637C27.1164 59.2887 27.1664 58.9012 27.1726 58.52C27.1726 58.33 27.1364 58.145 27.1339 57.95C27.1276 57.45 27.1189 56.9412 27.1339 56.4375C27.1576 55.605 27.1264 54.7712 27.1339 53.9375C27.1414 53.47 27.1864 53.3862 27.6901 53.325C28.6726 53.2062 29.6514 53.0575 30.6314 52.9187C31.1814 52.84 31.7301 52.7562 32.2801 52.6775C32.4526 52.6525 32.6251 52.635 32.7964 52.61C33.0364 52.575 33.2764 52.5379 33.5164 52.4987C33.651 52.4638 33.788 52.4391 33.9264 52.425C34.6426 52.4125 35.3326 52.21 36.0401 52.1337C36.0908 52.1228 36.1422 52.1148 36.1939 52.11C36.6989 52.0877 37.2009 52.0204 37.6939 51.9087C37.7962 51.8912 37.9003 51.8862 38.0039 51.8937C38.074 51.8979 38.1405 51.9266 38.1917 51.9748C38.2429 52.023 38.2755 52.0877 38.2839 52.1575C38.2957 52.2256 38.302 52.2946 38.3026 52.3637C38.3051 52.96 38.3039 53.5512 38.3039 54.1425Z" fill="#5827B0"/>
<path d="M38.6163 82.455C38.6275 81.83 38.6425 81.205 38.6463 80.58C38.6463 80.205 38.62 79.8162 38.625 79.435C38.6338 78.74 38.5975 78.0463 38.6138 77.3513C38.6338 76.5225 38.5725 76.6938 39.3163 76.5475C39.8934 76.4254 40.478 76.3419 41.0663 76.2975C41.4413 76.2738 41.8238 76.1975 42.2025 76.145C43.1138 76.02 44.025 75.895 44.935 75.7625C45.3988 75.6937 45.8588 75.605 46.3288 75.5762C46.5863 75.5612 46.8413 75.4912 47.0988 75.4512C47.9063 75.3329 48.7142 75.2163 49.5225 75.1013C49.5524 75.0942 49.5834 75.0942 49.6133 75.1013C49.6431 75.1084 49.6709 75.1223 49.6944 75.1419C49.7179 75.1615 49.7366 75.1864 49.7488 75.2145C49.7611 75.2426 49.7666 75.2731 49.765 75.3037C49.7684 75.3207 49.7704 75.3378 49.7713 75.355C49.7713 75.65 49.79 75.945 49.7825 76.24C49.7663 76.865 49.79 77.49 49.7688 78.115C49.7525 78.615 49.7925 79.115 49.7813 79.6237C49.7738 79.9537 49.7725 80.2825 49.745 80.6125C49.7336 80.923 49.7403 81.234 49.765 81.5437C49.765 81.7 49.7838 81.8562 49.78 82.0125C49.77 82.4287 49.75 82.8437 49.74 83.2625C49.74 83.365 49.7638 83.4688 49.7663 83.5725C49.7663 83.8325 49.7813 84.095 49.7663 84.3538C49.7563 84.545 49.7738 84.7388 49.7575 84.9238C49.7088 85.48 49.79 86.0313 49.7725 86.585C49.7725 86.62 49.7725 86.655 49.7725 86.6888C49.75 86.9988 49.6313 87.125 49.33 87.1675L46.5963 87.5613C45.5813 87.7063 44.5675 87.855 43.5513 87.9925C42.64 88.1175 41.7263 88.22 40.815 88.3438C40.23 88.4238 39.6475 88.525 39.065 88.6137C38.9787 88.6235 38.8919 88.6277 38.805 88.6263C38.7703 88.6276 38.7364 88.6153 38.7107 88.5919C38.685 88.5685 38.6695 88.536 38.6675 88.5013C38.6346 88.2943 38.6141 88.0856 38.6063 87.8763C38.6013 86.0679 38.6013 84.2596 38.6063 82.4512L38.6163 82.455Z" fill="#5827B0"/>
<path d="M26.8076 47V47.9913C26.8076 49.45 26.8076 50.91 26.8076 52.3663C26.8076 52.4713 26.8076 52.575 26.8001 52.68C26.7838 52.9625 26.7226 53.0425 26.4351 53.0975C26.1476 53.1525 25.8526 53.1888 25.5601 53.2325L24.2201 53.4338C24.1684 53.4425 24.1162 53.4476 24.0638 53.4488C23.8915 53.4326 23.7179 53.436 23.5463 53.4588C23.3788 53.4988 23.2126 53.5525 23.0463 53.5775L20.8276 53.8888C20.5701 53.9263 20.3113 53.9613 20.0551 54.0138C19.7658 54.0766 19.469 54.0972 19.1738 54.075C19.0701 54.0727 18.9669 54.0887 18.8688 54.1225C18.6338 54.1813 18.3938 54.2238 18.1551 54.2713C18.0526 54.2961 17.9446 54.2814 17.8526 54.23C17.83 54.2165 17.8033 54.2113 17.7772 54.2154C17.7512 54.2195 17.7274 54.2327 17.7101 54.2525C17.6474 54.313 17.5674 54.3523 17.4813 54.365C17.0351 54.4288 16.5901 54.4975 16.1426 54.5613C16.0401 54.5763 15.9363 54.5825 15.8326 54.5888C15.8064 54.5899 15.7804 54.5844 15.757 54.5728C15.7335 54.5612 15.7133 54.544 15.6983 54.5226C15.6832 54.5012 15.6738 54.4763 15.6708 54.4503C15.6679 54.4243 15.6715 54.398 15.6813 54.3738C15.7013 54.31 15.7476 54.2488 15.7101 54.175C15.6163 53.995 15.6476 53.8 15.6488 53.6113C15.6613 52.4863 15.6351 51.3525 15.6488 50.2238C15.6601 49.2338 15.6313 48.2425 15.6488 47.2525C15.6426 47.1831 15.6426 47.1132 15.6488 47.0438C15.6876 46.8425 15.7401 46.6438 15.6688 46.4388C15.7313 46.2475 15.6563 46.0638 15.6538 45.8713C15.6538 45.5063 15.6426 45.14 15.6426 44.775C15.6426 44.2367 15.6426 43.6979 15.6426 43.1588C15.644 43.0371 15.6524 42.9157 15.6676 42.795C15.6704 42.7511 15.6869 42.7093 15.7147 42.6752C15.7425 42.6412 15.7802 42.6166 15.8226 42.605C15.9556 42.5637 16.0914 42.5315 16.2288 42.5088C16.8126 42.4288 17.4013 42.375 17.9788 42.2763C18.5788 42.1725 19.1876 42.1513 19.7826 42.0125C20.1038 41.94 20.4388 41.935 20.7626 41.875C21.1713 41.8013 21.5913 41.8213 21.9926 41.705C22.0442 41.695 22.0972 41.695 22.1488 41.705C22.4238 41.7296 22.7008 41.6951 22.9613 41.6037C23.3988 41.4712 23.8513 41.4438 24.2963 41.3825C24.7413 41.3213 25.1551 41.2575 25.5876 41.2212C25.9325 41.198 26.2754 41.1508 26.6138 41.08C26.6351 41.0748 26.6572 41.0744 26.6786 41.0788C26.7001 41.0832 26.7202 41.0923 26.7377 41.1055C26.7552 41.1186 26.7695 41.1355 26.7796 41.1549C26.7898 41.1743 26.7955 41.1956 26.7963 41.2175C26.8038 41.3037 26.8101 41.39 26.8101 41.4775L26.7988 46.5375C26.7988 46.6938 26.7988 46.85 26.7988 47.0063L26.8076 47Z" fill="#5827B0"/>
<path d="M26.8212 34.4687C26.8037 35.4075 26.8025 36.1875 26.8212 36.9687C26.83 37.4687 26.8037 37.9762 26.8037 38.48C26.8037 38.9487 26.8187 39.4175 26.8212 39.8862C26.8212 40.06 26.8137 40.2337 26.8 40.4075C26.7965 40.469 26.7728 40.5276 26.7326 40.5741C26.6923 40.6207 26.6378 40.6527 26.5775 40.665C26.5108 40.6837 26.4426 40.6963 26.3737 40.7025C25.4725 40.7787 24.5825 40.9387 23.6875 41.0625C23 41.1587 22.3125 41.2512 21.6237 41.35C20.955 41.4462 20.2862 41.5512 19.6162 41.6487C19.2225 41.7062 18.82 41.69 18.435 41.8112C18.3673 41.8288 18.2963 41.8288 18.2287 41.8112C18.1463 41.7884 18.0587 41.7924 17.9787 41.8225C17.6962 41.9086 17.4047 41.9619 17.11 41.9812C16.7137 42.02 16.3187 42.0825 15.9225 42.135C15.7462 42.1587 15.6637 42.0925 15.6575 41.91C15.6575 41.7537 15.6575 41.5975 15.6575 41.4412C15.6575 40.6775 15.6362 39.9137 15.7037 39.1512C15.7107 38.8591 15.6986 38.5668 15.6675 38.2762C15.6675 38.1512 15.6512 38.0337 15.6525 37.9125C15.6525 37.4275 15.6912 36.9437 15.6525 36.4575C15.6502 36.2838 15.6586 36.1102 15.6775 35.9375C15.688 35.8693 15.6918 35.8002 15.6887 35.7312C15.6275 35.1604 15.6174 34.5852 15.6587 34.0125C15.6875 33.2162 15.6937 32.4212 15.6587 31.625C15.64 31.2087 15.6587 30.7912 15.6725 30.375C15.6698 30.3222 15.6865 30.2702 15.7194 30.2288C15.7523 30.1874 15.7991 30.1594 15.8512 30.15C15.9687 30.1183 16.0881 30.0941 16.2087 30.0775C16.845 29.995 17.4825 29.925 18.1187 29.8375C18.9787 29.7187 19.8375 29.5875 20.6962 29.4625C21.2462 29.3837 21.7975 29.3125 22.3475 29.2337C22.9312 29.15 23.515 29.06 24.0975 28.9737C24.2225 28.9562 24.3375 28.9337 24.4587 28.9262C24.9275 28.9012 25.385 28.8012 25.8487 28.7312C26.09 28.6987 26.33 28.6575 26.5712 28.6262C26.6232 28.6197 26.6758 28.6334 26.7179 28.6646C26.76 28.6958 26.7885 28.7421 26.7975 28.7937C26.8097 28.8624 26.8176 28.9317 26.8212 29.0012C26.8212 29.4 26.8425 29.8012 26.8212 30.2C26.7937 30.9637 26.8212 31.7262 26.8212 32.49C26.8175 33.2013 26.8212 33.9137 26.8212 34.4687Z" fill="#5827B0"/>
<path d="M84.3601 38.9813C84.3601 40.0413 84.3713 41.1062 84.3601 42.1637C84.3488 42.9287 84.3888 43.6925 84.3701 44.4575C84.3701 44.5625 84.37 44.6663 84.3563 44.77C84.3532 44.8137 84.337 44.8555 84.3098 44.8898C84.2826 44.9242 84.2457 44.9495 84.2038 44.9625C84.1383 44.9851 84.0709 45.0023 84.0026 45.0137C83.6276 45.0737 83.2526 45.1537 82.8676 45.1837C82.1726 45.2375 81.4925 45.3862 80.8025 45.4675L79.5001 45.625C79.3609 45.63 79.2225 45.6471 79.0863 45.6762C78.6001 45.825 78.0938 45.8488 77.5963 45.9187L75.9463 46.155C75.3213 46.2437 74.7126 46.3613 74.0913 46.4238C73.0763 46.5263 73.1676 46.6938 73.1988 45.5988C73.2151 45.0263 73.2226 44.455 73.1988 43.8838C73.1988 43.8313 73.1901 43.7788 73.1988 43.7275C73.2363 42.9775 73.1701 42.2338 73.2426 41.4888C73.2509 41.4025 73.2479 41.3155 73.2338 41.23C73.1754 40.9215 73.1796 40.6044 73.2463 40.2975C73.2751 40.1438 73.2751 39.9862 73.2463 39.8325C73.2232 39.6087 73.2144 39.3837 73.2201 39.1587C73.2126 38.69 73.2838 38.2213 73.2201 37.755C73.1863 37.5263 73.2788 37.305 73.2613 37.0825C73.2232 36.8596 73.2094 36.6333 73.2201 36.4075C73.2707 36.0459 73.2707 35.6791 73.2201 35.3175C73.2001 35.1276 73.2001 34.9361 73.2201 34.7463C73.22 34.6752 73.2471 34.6068 73.296 34.5551C73.3448 34.5035 73.4116 34.4726 73.4826 34.4688C73.8951 34.41 74.3088 34.3575 74.7226 34.3038C74.8263 34.29 74.9313 34.2913 75.0326 34.2688C75.7826 34.1025 76.5476 34.06 77.3001 33.9263C77.6761 33.854 78.0573 33.8122 78.4401 33.8013C78.4921 33.8047 78.5443 33.8005 78.5951 33.7888C79.1976 33.5975 79.8301 33.5962 80.4451 33.4787C80.8876 33.3937 81.34 33.365 81.7875 33.305C82.15 33.2563 82.51 33.1975 82.8713 33.145C82.9898 33.117 83.1108 33.1011 83.2325 33.0975C83.4562 33.1215 83.6823 33.0923 83.8926 33.0125C83.9595 32.9931 84.0292 32.9851 84.0988 32.9888C84.1292 32.9851 84.16 32.9875 84.1894 32.9957C84.2189 33.004 84.2464 33.018 84.2705 33.0369C84.2945 33.0558 84.3146 33.0793 84.3295 33.106C84.3445 33.1327 84.354 33.1621 84.3575 33.1925C84.3721 33.3308 84.3792 33.4697 84.3788 33.6088C84.3788 34.8588 84.3788 36.1113 84.3788 37.3663V38.9838L84.3601 38.9813Z" fill="#5827B0"/>
<path d="M73.1562 82.5325C73.1738 82.2125 73.1888 81.935 73.2038 81.6575C73.2056 81.6229 73.2056 81.5883 73.2038 81.5537C73.1238 80.4425 73.1725 79.3312 73.1925 78.2187C73.1925 77.995 73.1725 77.77 73.1725 77.545C73.1725 76.6237 73.1725 75.7012 73.1725 74.78C73.1725 74.2412 73.1725 73.7012 73.1725 73.1625C73.1725 72.7458 73.1821 72.3292 73.2012 71.9125C73.2054 71.8877 73.2155 71.8642 73.2308 71.8442C73.246 71.8241 73.2659 71.8081 73.2887 71.7975C73.5746 71.7264 73.8642 71.6713 74.1563 71.6325C74.5543 71.601 74.95 71.545 75.3413 71.465C75.7163 71.38 76.0988 71.3663 76.4775 71.315C77.1663 71.2225 77.8525 71.1237 78.5413 71.0287C79.16 70.9437 79.78 70.8662 80.3975 70.7787C81.05 70.6837 81.7013 70.58 82.3538 70.4825C82.8171 70.4125 83.2813 70.3446 83.7463 70.2787C83.8325 70.2681 83.9194 70.2644 84.0063 70.2675C84.2438 70.2675 84.3363 70.345 84.3375 70.5687C84.3611 70.9336 84.3552 71.2998 84.32 71.6637C84.3068 71.7317 84.3009 71.8008 84.3025 71.87C84.3506 72.7025 84.3569 73.5369 84.3213 74.37C84.3213 74.5088 84.34 74.6487 84.3388 74.7875C84.3554 75.1699 84.3446 75.5529 84.3063 75.9337C84.298 76.0375 84.3009 76.1419 84.315 76.245C84.3213 76.37 84.3375 76.4875 84.34 76.6087C84.34 77.1287 84.2975 77.6487 84.34 78.17C84.3409 78.309 84.33 78.4478 84.3075 78.585C84.2945 78.6526 84.287 78.7212 84.285 78.79C84.3225 79.31 84.2925 79.8287 84.3138 80.3487C84.3192 80.6613 84.3071 80.9738 84.2775 81.285C84.2488 81.456 84.2425 81.6299 84.2588 81.8025C84.2644 81.8719 84.2576 81.9417 84.2388 82.0087C84.2311 82.0697 84.2059 82.1271 84.1661 82.1739C84.1264 82.2208 84.0739 82.255 84.015 82.2725C83.9161 82.3063 83.8139 82.3294 83.71 82.3412C83.1713 82.38 82.6425 82.48 82.1113 82.5712C81.7875 82.6275 81.4575 82.6537 81.13 82.6962C80.4763 82.7812 79.8213 82.87 79.1663 82.9537C78.805 83 78.4513 83.0912 78.0863 83.13C77.4825 83.1925 76.8825 83.2987 76.28 83.38L73.855 83.7225C73.7175 83.7413 73.5788 83.7575 73.44 83.77C73.2775 83.7837 73.2013 83.73 73.19 83.5787C73.175 83.22 73.1663 82.855 73.1562 82.5325Z" fill="#5827B0"/>
<path d="M38.7074 35.54C38.7074 34.7562 38.7074 33.9737 38.7074 33.1912C38.6895 32.8769 38.7038 32.5615 38.7499 32.25C38.7618 32.1822 38.7618 32.1128 38.7499 32.045C38.6981 31.5955 38.6918 31.142 38.7312 30.6912C38.7399 30.5537 38.7212 30.415 38.7212 30.2775C38.7212 29.285 38.7212 28.2937 38.7212 27.3025C38.7212 27.005 38.7812 26.92 39.0712 26.875C39.4987 26.8087 39.9224 26.695 40.3612 26.7087C40.4295 26.7194 40.4991 26.7194 40.5674 26.7087C41.1687 26.5175 41.8012 26.525 42.4149 26.4125C42.9962 26.3075 43.5824 26.23 44.1649 26.1475C44.5762 26.0887 44.9899 26.0437 45.4024 25.9887C45.6787 25.9525 45.9524 25.9112 46.2274 25.8637C46.8124 25.7775 47.3962 25.6875 47.9774 25.6025C48.4937 25.5275 49.0099 25.4562 49.5274 25.3837H49.5787C49.7612 25.3662 49.8487 25.4312 49.8524 25.6062C49.8612 25.9712 49.8749 26.3362 49.8524 26.6987C49.8424 26.8912 49.8462 27.0737 49.8524 27.27C49.8612 27.6 49.8262 27.9312 49.8449 28.2587C49.8752 28.5878 49.8722 28.919 49.8362 29.2475C49.8249 29.3338 49.8249 29.4212 49.8362 29.5075C49.8926 30.0266 49.896 30.5502 49.8462 31.07C49.8433 31.1909 49.8466 31.3119 49.8562 31.4325C49.8699 31.8675 49.9124 32.3075 49.8174 32.7325C49.7882 32.9047 49.7929 33.0809 49.8312 33.2512C49.8622 33.5276 49.8702 33.8061 49.8549 34.0837C49.8549 34.6212 49.7749 35.1587 49.8099 35.6937C49.8387 36.1312 49.7862 36.5625 49.7974 36.9962C49.7944 37.0661 49.7852 37.1355 49.7699 37.2037C49.7637 37.2469 49.7458 37.2874 49.718 37.3209C49.6902 37.3545 49.6536 37.3797 49.6124 37.3937C49.5314 37.4238 49.4477 37.4459 49.3624 37.46C49.1749 37.49 48.9874 37.5137 48.7962 37.5387C48.1924 37.6212 47.5887 37.7 46.9862 37.7887C46.3162 37.8837 45.6474 37.985 44.9762 38.0812C44.4262 38.1596 43.8753 38.2371 43.3237 38.3137L41.5162 38.5637C41.0512 38.6262 40.5862 38.6887 40.1224 38.75C39.8124 38.7937 39.5049 38.8512 39.1962 38.8987C39.1106 38.912 39.0241 38.9191 38.9374 38.92C38.8847 38.9208 38.8336 38.9015 38.7946 38.8659C38.7556 38.8304 38.7316 38.7813 38.7274 38.7287C38.7149 38.5037 38.7049 38.2775 38.7037 38.0512C38.7037 37.2162 38.7037 36.3812 38.7037 35.5512L38.7074 35.54Z" fill="#5827B0"/>
<path d="M72.8749 26.685C72.8749 27.4687 72.8749 28.13 72.8749 28.7912C72.8749 29.4862 72.8749 30.1825 72.8749 30.8775C72.8826 31.0512 72.8709 31.2252 72.8399 31.3962C72.8286 31.4813 72.8286 31.5675 72.8399 31.6525C72.8522 31.7203 72.861 31.7888 72.8661 31.8575C72.8274 32.3962 72.8911 32.9337 72.8749 33.4712C72.8749 33.5237 72.8811 33.5762 72.8749 33.6275C72.8411 34.0425 72.9249 34.175 72.3161 34.22C71.7074 34.265 71.0774 34.3887 70.4586 34.48C69.6511 34.605 68.8449 34.73 68.0361 34.84C67.1411 34.965 66.2449 35.0737 65.3499 35.1975C64.9749 35.25 64.5999 35.3387 64.2124 35.3225C64.1601 35.3213 64.1082 35.3311 64.0599 35.3512C63.7284 35.4585 63.3821 35.5129 63.0336 35.5125C62.8269 35.5364 62.6216 35.5715 62.4186 35.6175C62.2649 35.6437 62.1099 35.6675 61.9549 35.6837C61.9294 35.6898 61.9029 35.6898 61.8774 35.6839C61.8519 35.6779 61.8282 35.6661 61.8081 35.6493C61.7879 35.6326 61.772 35.6114 61.7614 35.5874C61.7509 35.5635 61.7461 35.5374 61.7474 35.5112C61.6951 34.7833 61.6809 34.0532 61.7049 33.3237C61.7343 32.84 61.7343 32.355 61.7049 31.8712C61.6761 31.5262 61.7174 31.1762 61.7224 30.8287C61.7224 30.6375 61.7149 30.4462 61.7224 30.2562C61.7159 30.1352 61.7247 30.0138 61.7486 29.895C61.7955 29.7092 61.7955 29.5146 61.7486 29.3287C61.7272 29.2443 61.7192 29.157 61.7249 29.07C61.7899 28.57 61.7386 28.07 61.7436 27.57C61.7555 27.2069 61.748 26.8435 61.7211 26.4812C61.7024 26.2937 61.7749 26.0975 61.7536 25.9125C61.6874 25.34 61.7749 24.7675 61.7236 24.195C61.6874 23.7912 61.7674 23.7075 62.1649 23.635C62.5228 23.5624 62.8847 23.5111 63.2486 23.4812C63.5249 23.465 63.7974 23.3987 64.0711 23.3562C65.2411 23.1875 66.4124 23.025 67.5811 22.8562C67.9399 22.786 68.3043 22.7488 68.6699 22.745C68.7908 22.7396 68.9107 22.7208 69.0274 22.6887C69.1811 22.66 69.3336 22.6237 69.4874 22.5987C70.2374 22.4825 70.9974 22.3662 71.7536 22.2562C72.0461 22.2137 72.3411 22.1875 72.6286 22.1587C72.681 22.1547 72.7329 22.1701 72.7746 22.2019C72.8164 22.2337 72.8449 22.2797 72.8549 22.3312C72.8707 22.4519 72.879 22.5734 72.8799 22.695C72.8724 23.1637 72.8599 23.6325 72.8499 24.1012C72.8499 24.1712 72.8499 24.24 72.8499 24.31C72.8586 24.6225 72.8836 24.935 72.8724 25.2475C72.8611 25.7675 72.8561 26.2875 72.8749 26.685Z" fill="#5827B0"/>
<path d="M49.8037 53.7425C49.7812 54.2325 49.8037 54.6488 49.775 55.0663C49.7462 55.4838 49.795 55.9 49.7937 56.3163C49.7937 56.6913 49.8212 57.0788 49.7412 57.4588C49.7289 57.5969 49.7352 57.7361 49.7599 57.8725C49.7805 58.0276 49.793 58.1836 49.7975 58.34C49.765 59.2613 49.8187 60.1813 49.7975 61.1013C49.7887 61.4313 49.77 61.7613 49.755 62.0913C49.7534 62.1259 49.7419 62.1594 49.7217 62.1875C49.7015 62.2157 49.6735 62.2374 49.6412 62.25C49.5321 62.3058 49.4094 62.3292 49.2874 62.3175C49.1845 62.2987 49.0786 62.3051 48.9787 62.3363C48.6137 62.4613 48.2287 62.4488 47.8537 62.5275C47.5824 62.5838 47.3037 62.6013 47.0275 62.6375C46.4775 62.7113 45.9262 62.7825 45.375 62.8613C44.55 62.9775 43.725 63.1025 42.9 63.2175C42.66 63.25 42.4125 63.2375 42.18 63.2925C41.9601 63.3447 41.7372 63.3827 41.5125 63.4063C41.3254 63.4448 41.1347 63.4628 40.9437 63.46C40.8747 63.4612 40.8063 63.4735 40.7412 63.4963C40.64 63.5188 40.5412 63.555 40.4387 63.5687C39.9387 63.6375 39.4387 63.7013 38.9387 63.7663C38.9043 63.7702 38.8696 63.7723 38.835 63.7725C38.7512 63.7725 38.6487 63.6913 38.6624 63.6138C38.7262 63.2663 38.6512 62.9225 38.6387 62.5775C38.6249 62.2651 38.6275 61.9522 38.6462 61.64C38.6687 61.275 38.6462 60.9125 38.64 60.5475C38.635 59.9225 38.6395 59.2975 38.6537 58.6725C38.6637 58.2375 38.6662 57.805 38.6437 57.37C38.625 57.0232 38.625 56.6756 38.6437 56.3288C38.6712 55.8613 38.5962 55.39 38.7 54.925C38.7068 54.8908 38.7068 54.8555 38.7 54.8213C38.5637 54.0813 38.7375 53.3338 38.6437 52.5913C38.6291 52.4007 38.6359 52.2091 38.6637 52.02C38.671 51.9677 38.6925 51.9184 38.7261 51.8776C38.7596 51.8368 38.8038 51.806 38.8537 51.7888C39.0156 51.7241 39.1871 51.6869 39.3612 51.6788C39.9862 51.6338 40.5987 51.5088 41.2174 51.4288C41.9233 51.3363 42.6291 51.2413 43.3349 51.1438C43.5925 51.1088 43.8524 51.0813 44.1074 51.035C44.8574 50.8992 45.6145 50.7938 46.3787 50.7188C46.4304 50.7136 46.4818 50.7052 46.5325 50.6938C47.1262 50.565 47.7294 50.4851 48.3362 50.455C48.3885 50.4539 48.4403 50.4451 48.49 50.4288C48.8362 50.29 49.2112 50.3338 49.5687 50.2625C49.5946 50.2587 49.621 50.2601 49.6463 50.2668C49.6716 50.2735 49.6952 50.2853 49.7158 50.3014C49.7364 50.3176 49.7535 50.3378 49.766 50.3607C49.7786 50.3837 49.7863 50.409 49.7887 50.435C49.7978 50.5038 49.802 50.5732 49.8012 50.6425C49.7787 51.2338 49.8362 51.825 49.78 52.4163C49.7612 52.6038 49.8112 52.7975 49.8037 52.9875C49.7925 53.2625 49.7562 53.5388 49.8037 53.7425Z" fill="#5827B0"/>
<path d="M15.6313 61C15.6313 60.095 15.6313 59.19 15.6313 58.2863C15.6313 57.59 15.6576 56.895 15.6663 56.1988C15.6663 56.0088 15.6488 55.8238 15.6451 55.6275C15.6451 55.4887 15.6451 55.3488 15.6601 55.21C15.6615 55.1661 15.6777 55.1239 15.706 55.0903C15.7344 55.0567 15.7733 55.0337 15.8163 55.025C16.0177 54.9702 16.2235 54.933 16.4313 54.9138C16.7441 54.8996 17.0545 54.8531 17.3576 54.775C17.4579 54.7461 17.561 54.7281 17.6651 54.7212C18.3463 54.7012 19.0076 54.5387 19.6788 54.4475C20.2476 54.3712 20.8113 54.26 21.3813 54.2038C22.0388 54.14 22.6876 54.0175 23.3451 53.9538C23.5526 53.9325 23.7563 53.8837 23.9626 53.8537C24.1688 53.8237 24.3763 53.8 24.5876 53.7713C24.9138 53.7275 25.2401 53.6837 25.5663 53.635C25.8926 53.5862 26.1826 53.535 26.4913 53.4875C26.5213 53.4808 26.5524 53.4805 26.5825 53.4865C26.6127 53.4924 26.6413 53.5046 26.6664 53.5223C26.6916 53.5399 26.7128 53.5626 26.7287 53.5889C26.7446 53.6152 26.7549 53.6445 26.7588 53.675C26.7945 53.809 26.8101 53.9476 26.8051 54.0863C26.7638 54.5188 26.8613 54.9613 26.7663 55.3863C26.7601 55.4206 26.7601 55.4557 26.7663 55.49C26.8451 56.045 26.8051 56.6025 26.8088 57.1588C26.8088 57.4888 26.7901 57.8188 26.7851 58.1488C26.7851 58.375 26.7951 58.6 26.7851 58.825C26.7588 59.5013 26.8626 60.1788 26.7851 60.8538C26.7751 60.9226 26.7751 60.9924 26.7851 61.0613C26.8244 61.3901 26.8332 61.722 26.8113 62.0525C26.8013 62.6425 26.8113 63.2325 26.7501 63.8213C26.7186 64.0462 26.7254 64.2748 26.7701 64.4975C26.8376 64.7788 26.7563 65.05 26.7088 65.3225C26.7029 65.3573 26.687 65.3897 26.663 65.4157C26.6391 65.4416 26.6081 65.4601 26.5738 65.4688C26.4243 65.5133 26.2713 65.5451 26.1163 65.5638C25.8216 65.5862 25.5291 65.6314 25.2413 65.6988C25.1224 65.7249 25.0016 65.7416 24.8801 65.7488C24.1301 65.8088 23.4038 65.9625 22.6651 66.0675C22.6484 66.0722 22.6312 66.0751 22.6138 66.0763C22.2276 66.0525 21.8638 66.1888 21.4888 66.23C21.1138 66.2713 20.7676 66.355 20.4051 66.3825C19.9701 66.4163 19.5451 66.5075 19.1163 66.5775C18.7563 66.635 18.3926 66.665 18.0313 66.715C17.3776 66.8075 16.7251 66.9063 16.0713 67C16.0201 67.0075 15.9676 67.0113 15.9163 67.0138C15.8639 67.017 15.812 67.0012 15.7702 66.9693C15.7285 66.9374 15.6996 66.8915 15.6888 66.84C15.6745 66.7544 15.6657 66.668 15.6626 66.5813C15.6626 65.7988 15.6626 65.0163 15.6626 64.2338C15.6626 63.7988 15.6563 63.3588 15.6563 62.9288C15.6563 62.2863 15.6563 61.6438 15.6563 61.0013L15.6313 61Z" fill="#5827B0"/>
<path d="M27.1251 74.9887C27.1251 74.3287 27.1088 73.6675 27.1251 73.0075C27.1426 72.435 27.1076 71.865 27.1188 71.2937C27.1301 70.7225 27.1188 70.1463 27.1251 69.5725C27.1338 68.5475 27.1251 67.5237 27.1251 66.4987C27.1251 66.4287 27.1251 66.36 27.1251 66.29C27.1338 65.8913 27.1251 65.81 27.6251 65.76C28.1788 65.705 28.7263 65.6025 29.2763 65.5237C29.6888 65.465 30.1026 65.4125 30.5151 65.3562C30.8413 65.3112 31.1701 65.2712 31.4938 65.215C32.0076 65.1262 32.5338 65.1175 33.0388 64.9788C33.072 64.9685 33.1066 64.963 33.1413 64.9625C33.7901 64.9913 34.4076 64.7775 35.0438 64.7262C35.7188 64.67 36.3763 64.4963 37.0526 64.4475C37.2423 64.4229 37.4305 64.3879 37.6163 64.3425C37.6844 64.329 37.7533 64.3198 37.8226 64.315C38.1488 64.295 38.2813 64.2913 38.2726 64.735C38.2563 65.6375 38.2813 66.5412 38.2838 67.445C38.2838 67.6175 38.2588 67.7913 38.2476 67.9638C38.2413 68.0675 38.2338 68.17 38.2363 68.2737C38.2526 69.0237 38.2738 69.7625 38.2851 70.5075C38.2851 70.7825 38.3263 71.065 38.2013 71.33C38.1895 71.3627 38.1895 71.3985 38.2013 71.4312C38.3263 71.7862 38.2676 72.1488 38.2488 72.5113C38.2506 72.5974 38.2572 72.6834 38.2688 72.7688C38.2915 72.9587 38.2961 73.1504 38.2826 73.3412C38.1938 73.9125 38.2651 74.4825 38.2601 75.0537C38.2601 75.3825 38.2376 75.7112 38.2163 76.0387C38.2051 76.2162 38.1438 76.2888 37.9663 76.3163C37.7288 76.3625 37.4876 76.395 37.2476 76.4312L36.8351 76.4875C36.2163 76.5775 35.5963 76.66 34.9788 76.7587C34.4126 76.8487 33.8388 76.8762 33.2776 77C32.9226 77.0787 32.5563 77.105 32.1951 77.1562C31.7488 77.2175 31.3013 77.2812 30.8538 77.3425C30.7341 77.3622 30.6126 77.3702 30.4913 77.3662C30.3712 77.3643 30.2515 77.3807 30.1363 77.415C29.8488 77.4865 29.5563 77.5363 29.2613 77.5637C28.7422 77.6086 28.2257 77.6799 27.7138 77.7775C27.68 77.7843 27.6457 77.7893 27.6113 77.7925C27.1826 77.8325 27.1113 77.8525 27.1113 77.335C27.1263 76.5525 27.1113 75.7712 27.1113 74.9887H27.1251ZM30.4263 69.6925C30.4076 69.6712 30.3888 69.6312 30.3688 69.63C30.3565 69.6273 30.3438 69.6272 30.3315 69.6297C30.3192 69.6322 30.3075 69.6373 30.2972 69.6446C30.287 69.6519 30.2784 69.6613 30.272 69.6721C30.2656 69.6829 30.2615 69.695 30.2601 69.7075C30.2628 69.7224 30.2695 69.7362 30.2794 69.7476C30.2893 69.7591 30.302 69.7676 30.3163 69.7725C30.3412 69.7752 30.3661 69.7684 30.3862 69.7536C30.4064 69.7388 30.4202 69.717 30.4251 69.6925H30.4263Z" fill="#5827B0"/>
<path d="M38.3113 42.0875C38.3113 42.765 38.3251 43.4437 38.3051 44.1212C38.2951 44.4837 38.2863 44.8437 38.3051 45.2075C38.3288 45.6062 38.3126 46.0075 38.3051 46.4062C38.3075 46.5276 38.2932 46.6488 38.2626 46.7663C38.2289 46.8638 38.2289 46.9699 38.2626 47.0675C38.2944 47.1667 38.3071 47.2711 38.3001 47.375C38.2663 47.9662 38.3126 48.555 38.3063 49.145C38.3001 49.735 38.3063 50.2925 38.3001 50.8662C38.3001 50.97 38.3001 51.075 38.2876 51.1787C38.2738 51.365 38.2151 51.4287 38.0451 51.4637C37.8401 51.5 37.6351 51.5425 37.4288 51.565C36.4788 51.6662 35.5388 51.845 34.5926 51.9613C33.8513 52.0525 33.1188 52.2112 32.3688 52.2287C32.2993 52.2304 32.2302 52.2397 32.1626 52.2562C31.6369 52.3714 31.1053 52.4574 30.5701 52.5137C29.9851 52.5975 29.4026 52.6912 28.8201 52.7637C28.4613 52.81 28.1076 52.9075 27.7364 52.85C27.6314 52.8337 27.5101 52.9187 27.3964 52.9525C27.2826 52.9862 27.2063 52.9363 27.1751 52.8063C27.1213 52.5858 27.1103 52.3571 27.1426 52.1325C27.1726 51.8918 27.1726 51.6482 27.1426 51.4075C27.1345 51.3386 27.1345 51.2689 27.1426 51.2C27.2114 50.6463 27.1426 50.0937 27.1326 49.5412C27.1251 49.3337 27.1426 49.1237 27.1426 48.9162C27.1426 48.0825 27.1426 47.2487 27.1426 46.4162C27.1307 46.1729 27.1483 45.9291 27.1951 45.69C27.2151 45.5878 27.2177 45.483 27.2026 45.38C27.1716 44.9307 27.1674 44.4798 27.1901 44.03C27.1901 43.7875 27.1901 43.5475 27.1701 43.3037C27.1209 42.8539 27.1268 42.3997 27.1876 41.9512C27.2001 41.8308 27.2064 41.7098 27.2063 41.5887C27.2176 41.4325 27.2264 41.2775 27.2464 41.1225C27.25 41.0874 27.2647 41.0544 27.2883 41.0281C27.3118 41.0018 27.3431 40.9837 27.3776 40.9762C27.6139 40.9275 27.8514 40.875 28.0901 40.8387C28.7951 40.7325 29.4976 40.6175 30.2051 40.54C30.7051 40.485 31.1951 40.3475 31.7051 40.375C31.8085 40.3678 31.9104 40.3459 32.0076 40.31C32.1263 40.2813 32.2438 40.2512 32.3613 40.22C32.5676 40.1637 32.7813 40.3037 32.9776 40.2062C33.1874 40.1222 33.4104 40.0761 33.6363 40.07C33.8438 40.0462 34.0488 40.0137 34.2551 39.9825C34.7876 39.8992 35.3201 39.8183 35.8526 39.74C35.9532 39.7144 36.0556 39.696 36.1588 39.685C36.7526 39.685 37.3301 39.55 37.9088 39.4712C37.9438 39.4712 37.9776 39.4625 38.0126 39.46C38.0469 39.4525 38.0824 39.4528 38.1165 39.4609C38.1507 39.469 38.1825 39.4847 38.2098 39.5068C38.237 39.5288 38.259 39.5568 38.274 39.5885C38.2889 39.6202 38.2966 39.6549 38.2963 39.69C38.3088 39.8625 38.3138 40.0362 38.3138 40.21C38.3138 40.835 38.3138 41.46 38.3138 42.085L38.3113 42.0875Z" fill="#5827B0"/>
<path d="M27.2225 24.95C27.2225 24.075 27.2225 23.2112 27.2225 22.3412C27.2201 22.2367 27.2298 22.1323 27.2513 22.03C27.2919 21.8963 27.2919 21.7536 27.2513 21.62C27.2285 21.5542 27.2204 21.4842 27.2275 21.415C27.3013 20.8962 27.1663 20.3737 27.2563 19.8562C27.2619 19.8043 27.2619 19.7519 27.2563 19.7C27.1963 18.6575 27.24 17.6137 27.2263 16.575C27.2257 16.5057 27.2294 16.4364 27.2375 16.3675C27.2405 16.2967 27.2696 16.2295 27.3193 16.1789C27.3689 16.1284 27.4355 16.098 27.5063 16.0937C28.3188 16.0162 29.1175 15.8437 29.9263 15.7375C30.735 15.6312 31.5438 15.525 32.3475 15.3837C32.98 15.2725 33.6225 15.2162 34.26 15.1337C34.4838 15.1037 34.7063 15.0637 34.93 15.03C35.5138 14.9412 36.0975 14.8487 36.68 14.7662C37.1625 14.6987 37.6463 14.6412 38.13 14.5887C38.1601 14.5815 38.1914 14.5812 38.2215 14.5879C38.2517 14.5946 38.2799 14.6082 38.3041 14.6275C38.3282 14.6468 38.3476 14.6713 38.3607 14.6993C38.3739 14.7272 38.3805 14.7578 38.38 14.7887C38.3899 14.8398 38.3937 14.8918 38.3913 14.9437C38.32 15.4975 38.445 16.0525 38.3675 16.6075C38.3449 16.8313 38.3478 17.0569 38.3763 17.28C38.419 17.7273 38.4185 18.1777 38.375 18.625C38.3626 18.7107 38.3551 18.7971 38.3525 18.8837C38.3638 19.3 38.385 19.7162 38.3925 20.1337C38.4205 20.4813 38.402 20.8311 38.3375 21.1737C38.3229 21.2419 38.3183 21.3118 38.3238 21.3812C38.335 21.7975 38.3463 22.215 38.3663 22.6312C38.3971 23.0823 38.3904 23.5351 38.3463 23.985C38.3381 24.1236 38.3381 24.2626 38.3463 24.4012C38.3463 24.6787 38.3388 24.9575 38.3388 25.235C38.3388 25.4262 38.3388 25.6175 38.3525 25.8075C38.3738 25.9622 38.3738 26.119 38.3525 26.2737C38.3075 26.5312 38.285 26.5637 38.0338 26.605C37.6213 26.6725 37.21 26.7487 36.7963 26.7987C36.5388 26.83 36.2675 26.78 36.0175 26.8362C35.7686 26.9093 35.5162 26.9698 35.2613 27.0175C34.6063 27.1 33.9513 27.175 33.2975 27.2675C32.6438 27.36 31.9588 27.4712 31.2888 27.5662C30.395 27.6912 29.4988 27.8162 28.6025 27.935C28.3113 27.9762 28.02 28.0212 27.7275 28.06C27.6587 28.0699 27.5895 28.0762 27.52 28.0787C27.4577 28.0848 27.3953 28.0672 27.3453 28.0295C27.2953 27.9917 27.2613 27.9366 27.25 27.875C27.2352 27.7895 27.2273 27.703 27.2263 27.6162C27.2263 27.0425 27.22 26.4687 27.2175 25.8937C27.2175 25.5812 27.2175 25.2687 27.2175 24.955L27.2225 24.95Z" fill="#5827B0"/>
<path d="M61.2789 67.1363C61.2789 68.0929 61.2789 69.0492 61.2789 70.005C61.2789 70.77 61.2789 71.5363 61.2789 72.3013C61.2789 72.4925 61.2664 72.6838 61.2526 72.875C61.2494 72.9278 61.2271 72.9776 61.1898 73.0151C61.1525 73.0526 61.1029 73.0752 61.0501 73.0788L58.6751 73.4187C58.0039 73.5137 57.3351 73.6275 56.6626 73.6975C55.9364 73.7738 55.2226 73.93 54.4989 74.0125C53.4789 74.1275 52.4714 74.31 51.4539 74.435C51.0914 74.48 50.7301 74.5337 50.3676 74.5762C50.3374 74.5823 50.3062 74.5815 50.2764 74.5737C50.2465 74.566 50.2188 74.5516 50.1954 74.5316C50.1719 74.5117 50.1533 74.4866 50.1409 74.4584C50.1285 74.4302 50.1227 74.3995 50.1238 74.3688C50.1057 74.1608 50.1057 73.9517 50.1238 73.7438C50.1601 73.4511 50.1601 73.1551 50.1238 72.8625C50.1134 72.7411 50.1093 72.6193 50.1114 72.4975C50.1114 71.9063 50.1114 71.3163 50.1114 70.725C50.1114 70.3963 50.1439 70.07 50.1189 69.7375C50.1085 69.3903 50.1219 69.0429 50.1588 68.6975C50.1726 68.4763 50.2389 68.2625 50.1376 68.0363C50.0764 67.8975 50.1189 67.7288 50.1464 67.5725C50.1733 67.4364 50.183 67.2973 50.1751 67.1588C50.1222 66.4514 50.1222 65.7411 50.1751 65.0338C50.1889 64.8605 50.1851 64.6863 50.1638 64.5138C50.1295 64.2905 50.1295 64.0633 50.1638 63.84C50.2091 63.5124 50.2162 63.1806 50.1851 62.8513C50.1701 62.6525 50.2176 62.58 50.3938 62.56C50.7388 62.5213 51.0751 62.4238 51.4276 62.435C51.6009 62.4247 51.7729 62.3983 51.9414 62.3563C52.1964 62.3024 52.4543 62.2632 52.7139 62.2388C53.0406 62.2242 53.366 62.187 53.6876 62.1275C54.2151 62.0275 54.7514 61.9638 55.2814 61.87C55.8451 61.7713 56.4289 61.815 56.9789 61.62C57.7364 61.5163 58.4914 61.3925 59.2514 61.315C59.7201 61.2663 60.1814 61.19 60.6426 61.1125C60.7282 61.0953 60.8153 61.0874 60.9026 61.0888C61.2314 61.1038 61.2776 61.1625 61.2864 61.4525C61.2951 61.765 61.2864 62.0775 61.2864 62.3913V67.1413L61.2789 67.1363Z" fill="#5827B0"/>
<path d="M72.7799 77.8475C72.7799 79.1692 72.7799 80.4908 72.7799 81.8125C72.7799 82.3508 72.7799 82.8896 72.7799 83.4287C72.7799 83.4987 72.7799 83.5687 72.7737 83.6375C72.7732 83.7084 72.7458 83.7765 72.6971 83.828C72.6484 83.8795 72.5819 83.9106 72.5112 83.915C72.1862 83.9675 71.8587 84.0113 71.5312 84.0575C70.8612 84.1525 70.1911 84.2488 69.5199 84.3388C69.0886 84.3963 68.6574 84.44 68.2261 84.495C67.8824 84.54 67.5399 84.5887 67.1974 84.645C66.5624 84.7487 65.9299 84.8612 65.2861 84.9075C64.9761 84.93 64.6699 85.005 64.3599 85.05C63.9999 85.1038 63.6374 85.1487 63.2761 85.2012C62.9149 85.2537 62.5561 85.3125 62.1949 85.365C62.0699 85.3825 61.9536 85.395 61.8324 85.4025C61.8108 85.4053 61.7888 85.4036 61.7679 85.3976C61.7469 85.3916 61.7274 85.3814 61.7106 85.3676C61.6937 85.3537 61.6799 85.3366 61.6699 85.3173C61.6599 85.2979 61.6539 85.2767 61.6524 85.255C61.6449 85.1687 61.6411 85.0813 61.6411 84.995C61.6336 84.3013 61.5686 83.6075 61.6411 82.9137C61.6574 82.7425 61.6411 82.5675 61.6411 82.3938C61.6411 81.8225 61.6511 81.2512 61.6511 80.68C61.6511 80.5425 61.6249 80.4037 61.6236 80.265C61.6182 80.0565 61.624 79.8479 61.6411 79.64C61.6968 79.2625 61.6968 78.8788 61.6411 78.5013C61.6194 78.3636 61.6127 78.2241 61.6211 78.085C61.6361 77.7225 61.6611 77.3587 61.6811 76.9962C61.6811 76.9262 61.6874 76.8562 61.6811 76.7875C61.6711 76.2137 61.6436 75.64 61.6549 75.0675C61.6636 74.6712 61.6236 74.27 61.7099 73.875C61.7212 73.7725 61.7249 73.6693 61.7211 73.5663C61.7229 73.5311 61.736 73.4974 61.7586 73.4704C61.7811 73.4433 61.8119 73.4243 61.8461 73.4163C61.9796 73.3777 62.1153 73.3473 62.2524 73.325C62.8024 73.245 63.3474 73.1438 63.9036 73.1038C64.2486 73.0788 64.5874 72.9788 64.9299 72.9325C65.6011 72.8388 66.2749 72.76 66.9461 72.67C67.2736 72.6262 67.5986 72.5638 67.9261 72.5238C68.7374 72.4238 69.5399 72.2738 70.3499 72.1638C70.7624 72.11 71.1787 72.0775 71.5924 72.0238C71.9199 71.9825 72.2449 71.9225 72.5712 71.8763C72.5971 71.8734 72.6234 71.8761 72.6483 71.8842C72.6732 71.8922 72.6961 71.9053 72.7155 71.9228C72.735 71.9402 72.7505 71.9616 72.7612 71.9854C72.7719 72.0093 72.7774 72.0351 72.7774 72.0612C72.7774 72.0962 72.7774 72.1313 72.7774 72.165C72.7774 72.2525 72.7774 72.34 72.7774 72.4262C72.7399 73.1212 72.8037 73.815 72.7774 74.5088C72.7512 75.2025 72.7674 75.865 72.7649 76.5437C72.7649 76.9775 72.7649 77.4125 72.7649 77.8475H72.7799Z" fill="#5827B0"/>
<path d="M26.7201 81.3313C26.7201 82.0438 26.7201 82.7562 26.7201 83.4688C26.7369 83.7466 26.7219 84.0256 26.6751 84.3C26.6557 84.3843 26.6557 84.4719 26.6751 84.5563C26.7175 84.7782 26.7326 85.0044 26.7201 85.23C26.7201 86.6217 26.7201 88.0121 26.7201 89.4013C26.7201 89.645 26.7101 89.8875 26.6963 90.13C26.6938 90.1738 26.6781 90.2158 26.6514 90.2506C26.6246 90.2854 26.588 90.3113 26.5463 90.325C26.4663 90.36 26.3824 90.3856 26.2963 90.4013C25.9351 90.4513 25.5726 90.4913 25.2113 90.5387C24.9188 90.5775 24.6276 90.6225 24.3363 90.6637C23.9251 90.725 23.5151 90.81 23.1001 90.8388C22.8376 90.8563 22.5876 90.92 22.3301 90.9575C21.6634 91.0567 20.993 91.1533 20.3188 91.2475C19.6447 91.3417 18.9743 91.4367 18.3076 91.5325C17.5343 91.6417 16.7609 91.7504 15.9876 91.8587C15.9185 91.8637 15.8492 91.8637 15.7801 91.8587C15.7274 91.8567 15.6772 91.8357 15.6386 91.7997C15.6001 91.7636 15.5757 91.715 15.5701 91.6625C15.5565 91.5417 15.5499 91.4203 15.5501 91.2988C15.5576 90.4138 15.5726 89.5288 15.5763 88.6438C15.5763 88.2613 15.5563 87.8787 15.5513 87.4975C15.5374 87.2367 15.5516 86.9752 15.5938 86.7175C15.6049 86.6489 15.6078 86.5793 15.6026 86.51C15.5888 86.095 15.5601 85.6788 15.5613 85.26C15.5626 84.8413 15.5938 84.4288 15.6113 84.01C15.6234 83.8891 15.6267 83.7676 15.6213 83.6462C15.5695 83.1818 15.562 82.7134 15.5988 82.2475C15.5038 81.7662 15.6613 81.2813 15.5713 80.7975C15.5413 80.6325 15.6126 80.4513 15.6001 80.2812C15.5726 79.9275 15.6751 79.8763 15.9551 79.8313C16.2976 79.7763 16.6401 79.7288 16.9826 79.6675C17.1526 79.6375 17.3301 79.7175 17.4963 79.63C17.6626 79.5425 17.8463 79.6862 18.0051 79.5925C18.1437 79.5196 18.2962 79.477 18.4526 79.4675C18.6251 79.4487 18.7938 79.3987 18.9651 79.3737C19.1363 79.3487 19.3113 79.3363 19.4838 79.3288C19.6563 79.3213 19.8588 79.3613 20.0451 79.2588C20.0951 79.23 20.1788 79.2588 20.2476 79.2588C20.3163 79.2588 20.3726 79.2788 20.3988 79.2588C20.6101 79.0913 20.8626 79.1425 21.1001 79.1113C21.6513 79.04 22.2013 78.9612 22.7513 78.8825C23.6263 78.7575 24.5013 78.6325 25.3763 78.495C25.7524 78.4291 26.1324 78.3874 26.5138 78.37C26.6388 78.37 26.6988 78.4275 26.7126 78.5575C26.7203 78.6088 26.7249 78.6606 26.7263 78.7125V81.3187L26.7201 81.3313ZM25.3576 83.8175C25.3326 83.8362 25.2876 83.86 25.2901 83.8712C25.3009 83.9167 25.3214 83.9594 25.3501 83.9962C25.3601 84.0087 25.4313 83.9963 25.4326 83.9875C25.4365 83.955 25.4315 83.9221 25.4183 83.8922C25.4052 83.8623 25.3842 83.8365 25.3576 83.8175Z" fill="#5827B0"/>
<path d="M61.6937 66.905C61.6937 66.21 61.6787 65.515 61.6825 64.8187C61.6825 64.1587 61.7062 63.4987 61.715 62.8387C61.715 62.6825 61.69 62.5275 61.69 62.3712C61.69 61.9887 61.69 61.6062 61.6987 61.2237C61.6954 61.1932 61.6982 61.1623 61.7068 61.1328C61.7155 61.1034 61.7299 61.0759 61.7491 61.052C61.7684 61.0281 61.7922 61.0082 61.8192 60.9935C61.8461 60.9788 61.8757 60.9695 61.9062 60.9662C62.2487 60.9 62.5887 60.8237 62.9337 60.7875C63.4187 60.735 63.8963 60.6512 64.3775 60.5762C64.995 60.48 65.6175 60.42 66.2375 60.3362C66.805 60.26 67.3713 60.1712 67.9388 60.0862C68.0763 60.065 68.2138 60.045 68.3513 60.0287C68.6963 59.9862 69.0425 59.9612 69.3838 59.9037C70.12 59.7787 70.8575 59.6537 71.6013 59.59C71.9125 59.5612 72.2263 59.5062 72.5313 59.465C72.7013 59.445 72.7813 59.5137 72.81 59.6925C72.8343 59.8296 72.8481 59.9683 72.8513 60.1075C72.8696 60.5074 72.8579 60.9081 72.8163 61.3062C72.8033 61.3568 72.7983 61.4091 72.8013 61.4612C72.8688 61.8225 72.8075 62.1875 72.8388 62.5487C72.8663 62.88 72.8125 63.2087 72.8138 63.5362C72.815 63.8637 72.8525 64.1612 72.8338 64.4725C72.8113 64.87 72.8338 65.27 72.8338 65.6687C72.8456 65.8071 72.8494 65.9461 72.845 66.085C72.7688 66.71 72.8 67.335 72.8063 67.96C72.8175 68.95 72.7975 69.94 72.7888 70.93C72.7888 71.0175 72.7813 71.1037 72.7725 71.19C72.7674 71.2423 72.7478 71.2922 72.716 71.3341C72.6843 71.3761 72.6415 71.4084 72.5925 71.4275C72.5307 71.4588 72.4646 71.4807 72.3963 71.4925C71.7588 71.5787 71.1213 71.6575 70.485 71.7425C70.0375 71.805 69.5913 71.8675 69.1463 71.9487C68.9622 72.0003 68.77 72.016 68.58 71.995C68.5118 71.9831 68.4415 71.9909 68.3775 72.0175C68.1134 72.1056 67.8391 72.1593 67.5613 72.1775C66.6863 72.29 65.8 72.3837 64.9275 72.5337C64.02 72.6912 63.0987 72.7487 62.1962 72.9325C62.1281 72.9455 62.0592 72.9543 61.99 72.9587C61.81 72.9725 61.7162 72.905 61.705 72.7375C61.6887 72.5125 61.6775 72.2862 61.6775 72.06C61.6775 71.4862 61.6875 70.9125 61.6875 70.3387C61.6875 69.5575 61.6812 68.775 61.6812 67.9925C61.6812 67.7312 61.695 67.4712 61.705 67.2112C61.705 67.1075 61.7162 67.0037 61.7225 66.9012L61.6937 66.905Z" fill="#5827B0"/>
<path d="M26.8312 20.3375C26.8312 21.4342 26.8312 22.5304 26.8312 23.6262C26.8445 23.887 26.8303 24.1485 26.7887 24.4062C26.7688 24.4911 26.7662 24.5791 26.7812 24.665C26.8637 25.0975 26.82 25.5325 26.8225 25.9675C26.8225 26.5588 26.8225 27.15 26.8225 27.7412C26.8225 28.1162 26.7937 28.1937 26.3362 28.265C26.045 28.31 25.7512 28.3425 25.4612 28.3812C25.2025 28.4162 24.9437 28.4462 24.6862 28.485C24.0162 28.5862 23.3475 28.6975 22.6762 28.79C22.005 28.8825 21.3312 28.9537 20.6587 29.04C20.1937 29.1038 19.7287 29.1725 19.27 29.265C19.075 29.3037 18.8875 29.265 18.7012 29.2837C18.515 29.3025 18.3262 29.4087 18.1475 29.4087C17.7075 29.4087 17.295 29.5512 16.865 29.5937C16.555 29.635 16.2427 29.655 15.93 29.6537C15.8863 29.6521 15.8442 29.637 15.8093 29.6106C15.7744 29.5843 15.7485 29.5478 15.735 29.5062C15.6752 29.3793 15.6523 29.2381 15.6687 29.0987C15.6918 28.8231 15.6969 28.5463 15.6837 28.27C15.6925 27.9587 15.6387 27.645 15.7237 27.335C15.7338 27.2659 15.7309 27.1955 15.715 27.1275C15.6358 26.5048 15.6387 25.8744 15.7237 25.2525C15.7308 25.2184 15.7342 25.1836 15.7337 25.1487C15.6962 24.595 15.7775 24.0387 15.6987 23.4825C15.6731 23.2058 15.6668 22.9276 15.68 22.65C15.68 22.4937 15.6925 22.3375 15.7012 22.1825C15.7162 21.8712 15.6712 21.5575 15.7375 21.2475C15.7606 21.0921 15.7606 20.9341 15.7375 20.7787C15.7035 20.294 15.7115 19.8072 15.7612 19.3237C15.7671 19.2029 15.7641 19.0817 15.7525 18.9612C15.7206 18.6149 15.7206 18.2664 15.7525 17.92C15.756 17.8762 15.7727 17.8345 15.8003 17.8003C15.828 17.7662 15.8654 17.7412 15.9075 17.7287C16.0568 17.6827 16.2093 17.6476 16.3637 17.6237C17.1737 17.515 17.9887 17.4187 18.7937 17.3087C19.3262 17.2362 19.8562 17.1462 20.3862 17.0587C20.9162 16.9712 21.45 16.8787 21.985 16.8225C22.4337 16.775 22.8737 16.6725 23.33 16.665C23.6933 16.6372 24.0545 16.5858 24.4112 16.5112L26.4737 16.21C26.5075 16.21 26.5412 16.1975 26.5762 16.195C26.6065 16.1913 26.6372 16.194 26.6663 16.2031C26.6954 16.2121 26.7222 16.2273 26.745 16.2475C26.7679 16.2677 26.7861 16.2925 26.7986 16.3203C26.8111 16.3481 26.8175 16.3783 26.8175 16.4087C26.8248 16.4605 26.829 16.5127 26.83 16.565C26.83 17.5733 26.8333 18.5821 26.84 19.5912V20.3212L26.8312 20.3375Z" fill="#5827B0"/>
<path d="M61.7925 22.4562C61.7325 22.145 61.7662 21.85 61.735 21.555C61.7125 21.2798 61.7175 21.003 61.75 20.7287C61.7856 20.2258 61.7906 19.7211 61.765 19.2175C61.7537 18.7175 61.7987 18.2112 61.7862 17.7087C61.7587 16.6662 61.8012 15.6237 61.7612 14.5837C61.7375 13.9425 61.7737 13.2987 61.78 12.6562C61.78 12.325 61.78 11.995 61.78 11.665C61.78 11.335 61.8937 11.2362 62.2125 11.185C62.4362 11.15 62.6587 11.1162 62.8825 11.0862C63.5187 11 64.1562 10.9212 64.7925 10.8362C65.8075 10.6925 66.8212 10.5425 67.8362 10.395C67.9552 10.372 68.0754 10.3557 68.1962 10.3462C68.5781 10.3234 68.9579 10.2728 69.3324 10.195C69.5537 10.155 69.7799 10.14 70.0037 10.115C70.0903 10.1151 70.1768 10.1088 70.2624 10.0962C71.0124 9.90999 71.7749 9.87874 72.5262 9.74374C72.5774 9.73515 72.6294 9.73222 72.6812 9.73499C72.7118 9.73415 72.7423 9.73945 72.7708 9.75055C72.7994 9.76166 72.8254 9.77836 72.8474 9.79967C72.8694 9.82097 72.887 9.84646 72.899 9.87464C72.911 9.90281 72.9173 9.93311 72.9174 9.96374C72.8724 10.3387 72.9824 10.7262 72.8937 11.1062C72.8793 11.1921 72.8767 11.2796 72.8862 11.3662C72.9274 12.0775 72.8437 12.79 72.9112 13.5012C72.9337 13.7412 72.8912 13.9875 72.8899 14.23C72.8899 15.29 72.8899 16.355 72.8899 17.4112C72.8899 18.3675 72.8899 19.3225 72.8812 20.2787C72.8812 20.575 72.8899 20.87 72.8887 21.1662C72.8881 21.2874 72.8806 21.4084 72.8662 21.5287C72.8618 21.5724 72.8446 21.6139 72.8168 21.6479C72.7891 21.6819 72.7519 21.707 72.7099 21.72C72.6625 21.7414 72.6125 21.7565 72.5612 21.765C72.1974 21.7925 71.8474 21.925 71.4787 21.91C71.4617 21.9075 71.4444 21.9075 71.4274 21.91C71.0437 22.035 70.6362 22.0062 70.2462 22.0787C69.1699 22.2812 68.0812 22.395 66.9962 22.5537C66.1012 22.6862 65.21 22.8412 64.3125 22.935C63.5512 23.015 62.8 23.1525 62.0437 23.2612C62.01 23.2612 61.975 23.2612 61.94 23.2612C61.9139 23.2631 61.8878 23.2594 61.8634 23.2502C61.8389 23.241 61.8167 23.2267 61.7983 23.2082C61.7799 23.1897 61.7658 23.1674 61.7568 23.1429C61.7478 23.1184 61.7442 23.0923 61.7462 23.0662C61.7637 22.8525 61.78 22.645 61.7925 22.4562Z" fill="#5827B0"/>
<path d="M84.4314 21.875C84.4251 22.0313 84.4314 22.31 84.3976 22.5838C84.3741 22.8435 84.3674 23.1044 84.3776 23.365C84.3776 23.7638 84.3776 24.1638 84.3776 24.5638C84.3776 25.1375 84.3776 25.7113 84.3776 26.285V31.1375C84.3776 31.485 84.3776 31.8338 84.3676 32.1813C84.3672 32.2505 84.3605 32.3195 84.3476 32.3875C84.3413 32.4211 84.3265 32.4525 84.3047 32.4788C84.2828 32.5051 84.2545 32.5253 84.2226 32.5375C84.157 32.5589 84.0896 32.5748 84.0214 32.585C83.2126 32.7013 82.4039 32.8138 81.5964 32.93C80.5301 33.0838 79.4713 33.255 78.3988 33.3913C77.1576 33.5488 75.9213 33.7375 74.6826 33.9175C74.5288 33.9462 74.3728 33.9612 74.2163 33.9625C73.9076 33.9538 73.6113 34.125 73.2988 34.015C73.2338 33.725 73.2888 33.43 73.2726 33.14C73.2467 32.7237 73.2467 32.3063 73.2726 31.89C73.3038 31.44 73.2813 30.9863 73.2813 30.535V26.41C73.2813 25.2113 73.2813 24.0113 73.2813 22.8113C73.2813 21.99 73.2401 22.1638 73.9563 21.9738C74.2948 21.8934 74.6393 21.8412 74.9863 21.8175C75.8526 21.7338 76.7063 21.5675 77.5676 21.4538L78.9113 21.2788C79.0138 21.265 79.1189 21.2588 79.2214 21.2375C79.8689 21.1013 80.5264 21.04 81.1826 20.96C81.4576 20.9263 81.7339 20.8863 82.0076 20.845C82.5576 20.7613 83.1051 20.67 83.6551 20.595C83.8439 20.5675 84.0364 20.56 84.2264 20.55C84.2623 20.5509 84.297 20.5636 84.325 20.5862C84.3531 20.6088 84.3728 20.64 84.3814 20.675C84.4317 20.8051 84.4538 20.9444 84.4464 21.0838C84.4276 21.2963 84.4314 21.5225 84.4314 21.875Z" fill="#5827B0"/>
<path d="M26.7575 68.1025C26.7782 68.2976 26.7672 68.4947 26.725 68.6863C26.685 68.9363 26.7425 69.1675 26.7425 69.4075C26.7425 71.1288 26.7275 72.8513 26.7212 74.5725C26.7212 75.4075 26.7212 76.2425 26.7212 77.0725C26.7212 77.2463 26.7212 77.42 26.705 77.5938C26.6925 77.7963 26.635 77.8625 26.435 77.9238C26.3694 77.9464 26.3021 77.9635 26.2337 77.975C25.53 78.0813 24.8275 78.2038 24.1212 78.2838C23.6537 78.3363 23.1937 78.4463 22.7287 78.4675C22.3537 78.4838 22.01 78.585 21.65 78.6263C21.29 78.6675 20.9287 78.7388 20.5675 78.7875C20.1362 78.8463 19.7037 78.89 19.2737 78.9463C18.7575 79.015 18.2412 79.0913 17.725 79.1625C17.6229 79.1828 17.519 79.192 17.415 79.19C17.2595 79.1833 17.1041 79.2067 16.9575 79.2588C16.5889 79.3533 16.2122 79.4123 15.8325 79.435C15.675 79.4513 15.6287 79.4013 15.6025 79.2263C15.5629 79.0563 15.5532 78.8808 15.5737 78.7075C15.6512 78.295 15.6012 77.8775 15.5975 77.4575C15.5975 77.2662 15.5975 77.0825 15.6125 76.8875C15.6431 76.4188 15.6431 75.9487 15.6125 75.48C15.605 75.325 15.6125 75.1687 15.6125 75.0125C15.6125 74.7863 15.6212 74.5613 15.6237 74.335C15.6112 73.8479 15.6262 73.3604 15.6687 72.875C15.6794 72.8241 15.6828 72.7719 15.6787 72.72C15.5837 72.22 15.65 71.7138 15.6425 71.2113C15.635 70.7088 15.6425 70.2375 15.6425 69.7513C15.6425 69.16 15.6425 68.5688 15.6425 67.9775C15.6425 67.4688 15.6875 67.4163 16.1887 67.3525C16.69 67.2888 17.1887 67.2275 17.6887 67.16C18.05 67.1113 18.41 67.0488 18.7712 67C19.6312 66.8838 20.4925 66.7725 21.3525 66.6563C21.5425 66.63 21.7275 66.5888 21.9175 66.555C22.0183 66.5278 22.1218 66.5115 22.2262 66.5063C22.5612 66.525 22.8787 66.4275 23.205 66.3813C23.9262 66.2788 24.6475 66.1675 25.3712 66.0725C25.6625 66.0338 25.9487 65.9475 26.2462 65.9863C26.3262 65.995 26.4112 65.9375 26.4962 65.9175C26.5217 65.9114 26.5482 65.911 26.5739 65.9163C26.5996 65.9215 26.6238 65.9324 26.6449 65.9479C26.666 65.9635 26.6834 65.9836 26.6959 66.0066C26.7084 66.0296 26.7158 66.0551 26.7175 66.0813C26.7249 66.115 26.7299 66.1493 26.7325 66.1837C26.7387 66.7737 26.8775 67.3613 26.7675 67.9525C26.7604 68.0022 26.757 68.0523 26.7575 68.1025Z" fill="#5827B0"/>
<path d="M27.1138 86.9238C27.1138 86.0213 27.1138 85.2388 27.1138 84.4563C27.1138 84.1275 27.0713 83.7963 27.1663 83.4713C27.1801 83.4209 27.1801 83.3678 27.1663 83.3175C27.0851 83.0075 27.1226 82.6925 27.1251 82.3825C27.1251 82.1225 27.1138 81.8612 27.1251 81.6C27.1363 81.3387 27.0813 81.0412 27.2413 80.7875C27.2477 80.7721 27.2502 80.7555 27.2487 80.7389C27.2472 80.7224 27.2416 80.7064 27.2326 80.6925C27.1076 80.545 27.1351 80.3675 27.1338 80.1925C27.1338 79.7225 27.1226 79.2538 27.1201 78.7838C27.1201 78.6588 27.1288 78.5412 27.1376 78.42C27.1385 78.385 27.1513 78.3513 27.1741 78.3247C27.1969 78.298 27.2281 78.2801 27.2626 78.2738C27.5513 78.2125 27.8401 78.1488 28.1313 78.1038C29.0763 77.9638 30.0213 77.8262 30.9688 77.7C31.9163 77.5737 32.8301 77.4687 33.7613 77.3487C34.1051 77.305 34.4438 77.2237 34.7951 77.2387C34.8804 77.2365 34.9648 77.2205 35.0451 77.1913C35.5126 77.045 35.9988 77.0038 36.4801 76.9413C36.7187 76.8948 36.96 76.8631 37.2026 76.8463C37.4262 76.8552 37.6498 76.8286 37.8651 76.7675C37.9488 76.7456 38.0365 76.743 38.1213 76.76C38.1454 76.7663 38.1677 76.7781 38.1865 76.7943C38.2054 76.8106 38.2203 76.8309 38.2301 76.8538C38.2532 76.9372 38.2645 77.0234 38.2638 77.11C38.2638 77.4225 38.2488 77.735 38.2451 78.045C38.2451 78.1312 38.2576 78.2175 38.2638 78.3038C38.2797 78.389 38.2839 78.4761 38.2763 78.5625C38.1838 79.0125 38.2588 79.4638 38.2438 79.9138C38.2288 80.3638 38.1863 80.8512 38.2713 81.3175C38.2826 81.3862 38.2826 81.4563 38.2713 81.525C38.1638 82.2338 38.2213 82.9475 38.2151 83.6588C38.2063 84.8413 38.2063 86.0238 38.2026 87.205C38.2026 87.5525 38.2026 87.9 38.2026 88.2475C38.2032 88.3519 38.1982 88.4562 38.1876 88.56C38.1843 88.6039 38.1668 88.6454 38.1377 88.6784C38.1086 88.7114 38.0695 88.7339 38.0263 88.7425C37.8051 88.7863 37.5826 88.8275 37.3588 88.86C36.453 88.99 35.5438 89.12 34.6313 89.25C34.0813 89.3275 33.5288 89.3925 32.9788 89.4775C32.0513 89.62 31.1176 89.7063 30.1926 89.8613C29.5076 89.975 28.8176 90.0413 28.1251 90.1288C27.8704 90.1769 27.6118 90.202 27.3526 90.2038C27.1526 90.1938 27.1326 90.1975 27.1163 90.0362C27.1055 89.9153 27.1009 89.7939 27.1026 89.6725C27.1026 89.0288 27.1163 88.3863 27.1201 87.7425C27.1251 87.4263 27.0476 87.1138 27.1138 86.9238Z" fill="#5827B0"/>
<path d="M38.3201 30.9413C38.3201 32.0375 38.3413 33.1325 38.3126 34.2275C38.2926 34.9225 38.3388 35.615 38.3213 36.3088C38.3038 37.0025 38.3213 37.7 38.3213 38.395C38.3213 38.9688 38.3613 38.9988 37.7413 39.0788C37.3976 39.1238 37.0563 39.1913 36.7126 39.2413C35.7501 39.3813 34.7888 39.5375 33.8238 39.65C32.8238 39.765 31.8313 39.9637 30.8238 40.0575C30.4113 40.0962 30.0063 40.2363 29.5826 40.1738C29.5129 40.1702 29.4433 40.1804 29.3776 40.2038C28.9054 40.3196 28.424 40.3941 27.9388 40.4263C27.7663 40.4413 27.5976 40.4875 27.4251 40.5088C27.3994 40.5136 27.373 40.5129 27.3476 40.5067C27.3222 40.5006 27.2984 40.489 27.2779 40.473C27.2573 40.4569 27.2404 40.4366 27.2282 40.4134C27.2161 40.3903 27.2091 40.3648 27.2076 40.3387C27.1969 40.2873 27.191 40.235 27.1901 40.1825C27.2251 39.6125 27.0876 39.0425 27.1901 38.4713C27.2263 38.2688 27.1338 38.0525 27.2476 37.8563C27.1426 37.6238 27.2176 37.3763 27.1826 37.1375C27.1618 37.0174 27.1572 36.8951 27.1688 36.7738C27.2563 36.1163 27.1926 35.4575 27.1988 34.7988C27.1988 34.5913 27.2151 34.3825 27.2163 34.1738C27.2163 33.6175 27.2338 33.0625 27.1951 32.5063C27.1788 32.2825 27.2163 32.0563 27.2176 31.83C27.2176 30.955 27.2176 30.0913 27.2238 29.2225C27.2238 29.135 27.2238 29.0488 27.2238 28.9613C27.2388 28.5863 27.2838 28.5475 27.6363 28.495C28.2188 28.4075 28.8076 28.3525 29.3863 28.2213C29.5216 28.1893 29.6599 28.1721 29.7988 28.17C30.1806 28.1543 30.5602 28.1033 30.9326 28.0175C31.2051 27.9663 31.4801 27.9213 31.7551 27.8838C32.2026 27.8225 32.6513 27.7688 33.0988 27.7138C33.1677 27.7057 33.2374 27.7057 33.3063 27.7138C33.4956 27.7209 33.6843 27.6898 33.8613 27.6225C34.182 27.547 34.5073 27.4923 34.8351 27.4588C35.4884 27.3654 36.1421 27.275 36.7963 27.1875C37.1913 27.1338 37.5876 27.0838 37.9851 27.04C38.0283 27.0327 38.0727 27.0353 38.1148 27.0477C38.1569 27.06 38.1957 27.0817 38.2281 27.1112C38.2606 27.1407 38.286 27.1772 38.3024 27.2179C38.3187 27.2586 38.3256 27.3025 38.3226 27.3463C38.3288 27.45 38.3226 27.555 38.3226 27.6588V30.945L38.3201 30.9413Z" fill="#5827B0"/>
<path d="M50.1874 58.4925C50.1874 58.0575 50.1874 57.6175 50.1874 57.1887C50.1874 56.545 50.1524 55.9 50.1874 55.2587C50.2137 54.7587 50.1712 54.2587 50.1874 53.7525C50.2037 53.2462 50.1949 52.7787 50.1974 52.2912C50.1974 51.7525 50.1974 51.2125 50.2037 50.6737C50.2024 50.5522 50.2087 50.4307 50.2224 50.31C50.2279 50.2759 50.2424 50.244 50.2644 50.2174C50.2863 50.1908 50.315 50.1705 50.3474 50.1587C50.3788 50.144 50.412 50.1335 50.4462 50.1275C50.7724 50.0837 51.0999 50.0425 51.4274 50.0025L51.7374 49.96C52.1312 49.9062 52.5149 49.7687 52.9224 49.835C52.9568 49.8413 52.9923 49.8365 53.0237 49.8212C53.3262 49.6512 53.6699 49.6962 53.9924 49.6437C54.6437 49.535 55.2999 49.4525 55.9562 49.3762C56.2487 49.3412 56.5387 49.3012 56.8312 49.24C57.0524 49.1937 57.2774 49.1687 57.5012 49.1362C57.5524 49.1287 57.6074 49.1362 57.6574 49.1262C58.1812 49.0012 58.7224 48.9875 59.2537 48.9087C59.7537 48.835 60.2412 48.7475 60.7374 48.675C61.2337 48.6025 61.3137 48.6837 61.3212 49.1925C61.3212 49.28 61.3099 49.3662 61.3074 49.4537C61.2962 49.5752 61.2962 49.6973 61.3074 49.8187C61.4149 50.46 61.3562 51.1012 61.3074 51.7425C61.2974 51.8812 61.3074 52.02 61.2987 52.16C61.2762 52.8712 61.3137 53.5825 61.3087 54.295C61.2999 55.72 61.2824 57.1462 61.2974 58.5712C61.2974 59.0412 61.2974 59.51 61.2974 59.98C61.2974 60.1187 61.2874 60.2587 61.2762 60.3975C61.2624 60.57 61.1974 60.6362 61.0162 60.6637C60.8787 60.6837 60.7387 60.6937 60.6012 60.7137L58.6924 60.9887L56.7849 61.2687C56.7499 61.2687 56.7162 61.2825 56.6812 61.2862C55.6949 61.3812 54.7224 61.5725 53.7399 61.6937C52.7912 61.8112 51.8512 61.98 50.9037 62.1062C50.8697 62.1118 50.8355 62.1156 50.8012 62.1175C50.2637 62.1287 50.1974 62.31 50.1824 61.575C50.1712 61.0537 50.2087 60.5337 50.1962 60.0125C50.1837 59.4912 50.1962 59.0025 50.1962 58.4987L50.1874 58.4925Z" fill="#5827B0"/>
<path d="M38.6838 50.635C38.6651 50.4958 38.6588 50.3553 38.665 50.215C38.79 49.465 38.69 48.7225 38.7025 47.9775C38.7213 46.7275 38.71 45.4775 38.7088 44.22C38.7088 42.8638 38.7088 41.5063 38.7088 40.15C38.7088 39.9763 38.7163 39.8025 38.7175 39.6275C38.7146 39.5571 38.7377 39.4881 38.7824 39.4337C38.8272 39.3792 38.8904 39.3432 38.96 39.3325C39.0596 39.3016 39.161 39.2774 39.2638 39.26C40.1938 39.135 41.1263 39.0313 42.055 38.9038C42.8813 38.79 43.7038 38.6538 44.5275 38.5288C44.82 38.4863 45.1163 38.4675 45.4088 38.4238C46.0263 38.3325 46.6425 38.2288 47.2613 38.1375C48.0013 38.0288 48.7413 37.9288 49.4813 37.825H49.5338C49.5638 37.8193 49.5947 37.8196 49.6245 37.8261C49.6544 37.8326 49.6827 37.845 49.7076 37.8626C49.7326 37.8802 49.7538 37.9027 49.7698 37.9286C49.7859 37.9546 49.7966 37.9836 49.8013 38.0137C49.8671 38.2849 49.882 38.5659 49.8451 38.8425C49.8219 38.9972 49.8131 39.1537 49.8188 39.31C49.8096 40.7183 49.803 42.1271 49.7988 43.5363C49.7988 44.3188 49.7988 45.1013 49.8051 45.8838C49.8051 47.0329 49.8051 48.1813 49.8051 49.3288C49.8051 49.3988 49.8051 49.4687 49.7976 49.5375C49.8015 49.5992 49.7825 49.6601 49.7442 49.7086C49.7059 49.7571 49.651 49.7896 49.5901 49.8C49.2838 49.8662 48.9788 49.9363 48.6726 49.9938C48.4501 50.035 48.2251 50.065 48.0013 50.0887C47.8638 50.1025 47.7238 50.0887 47.5851 50.0975C47.5165 50.0911 47.4475 50.0949 47.3801 50.1087C46.8501 50.2912 46.2901 50.3137 45.7425 50.3937C45.2625 50.4637 44.785 50.5812 44.2925 50.5537C44.2401 50.5527 44.1878 50.5598 44.1375 50.575C43.3788 50.7788 42.5938 50.825 41.8213 50.95C41.2038 51.0487 40.5838 51.1275 39.9625 51.21C39.62 51.255 39.275 51.2887 38.9313 51.3237C38.7375 51.3437 38.6475 51.2525 38.6525 51.0512C38.6525 50.9637 38.6688 50.8775 38.6763 50.7912C38.6838 50.705 38.6838 50.6475 38.6838 50.635ZM39.4675 49.0213C39.4272 49.0059 39.3853 48.995 39.3425 48.9888C39.295 48.9888 39.2838 49.025 39.325 49.0462C39.367 49.0623 39.4114 49.0711 39.4563 49.0725C39.4563 49.0725 39.46 49.0475 39.4675 49.0213Z" fill="#5827B0"/>
</svg>
